<?xml version="1.0" encoding="UTF-8"?>
<svg width="12px" height="12px" viewBox="0 0 12 12" version="1.1" xmlns="http://www.w3.org/2000/svg" xmlns:xlink="http://www.w3.org/1999/xlink">
    <title>Arrow</title>
    <g id="Pre-deposition" stroke="none" stroke-width="1" fill="none" fill-rule="evenodd">
        <g id="2.8.schedule.deposition.My.Depositions.ADMIN" transform="translate(-551.000000, -239.000000)" fill="currentColor">
            <g id="Components/Inputs/Date" transform="translate(288.000000, 226.000000)">
                <path d="M267.881339,13.6666667 C267.997049,13.6666667 268.112605,13.7148983 268.200896,13.8113615 C268.377479,14.0041202 268.377479,14.3168703 268.200896,14.5096289 L268.200896,14.5096289 L264.701,18.3326667 L274.540536,18.3333333 C274.766125,18.3333333 274.9537,18.5103148 274.992598,18.7434932 L275,18.8333333 C275,19.1093411 274.794301,19.3333333 274.540536,19.3333333 L274.540536,19.3333333 L264.396,19.3326667 L268.200896,23.4903291 C268.355406,23.6589929 268.37472,23.9195252 268.258837,24.1112686 L268.200896,24.1887644 C268.024313,24.381523 267.738365,24.381523 267.561782,24.1887644 L267.561782,24.1887644 L263.132437,19.3492686 C262.955854,19.1565339 262.955854,18.8437599 263.132437,18.6508334 L263.132437,18.6508334 L267.561782,13.8113615 C267.650074,13.7148983 267.76563,13.6666667 267.881339,13.6666667 Z" id="Arrow" transform="translate(269.000000, 19.000000) scale(-1, 1) translate(-269.000000, -19.000000) "></path>
            </g>
        </g>
    </g>
</svg>