<svg width="96" height="96" viewBox="0 0 96 96" xmlns="http://www.w3.org/2000/svg"><g fill="none" fill-rule="evenodd"><path d="M48 12c-19.872 0-36 16.128-36 36s16.128 36 36 36 36-16.128 36-36-16.128-36-36-36c-13.248 0-13.248 0 0 0zm-7.2 52.2L62.4 48 40.8 31.8v32.4zM19.2 48c0 15.876 12.924 28.8 28.8 28.8 15.876 0 28.8-12.924 28.8-28.8 0-15.876-12.924-28.8-28.8-28.8-15.876 0-28.8 12.924-28.8 28.8 0 10.584 0 10.584 0 0z" fill="#14232E"/><circle fill="#FFF" cx="76" cy="76" r="18.974"/><path d="M76.2 59.188c-9.204 0-16.666 7.461-16.666 16.666s7.462 16.667 16.667 16.667c9.205 0 16.667-7.462 16.667-16.667A16.667 16.667 0 0076.2 59.188zm-1.514 8.629c0-1 .848-1.811 1.894-1.811 1.046 0 1.894.81 1.894 1.81v9.257c0 1-.848 1.811-1.894 1.811-1.046 0-1.894-.81-1.894-1.81v-9.257zM76.2 84.945a2.273 2.273 0 110-4.545 2.273 2.273 0 010 4.545z" fill="#E7B32A"/></g></svg>
