<?xml version="1.0" encoding="UTF-8"?>
<svg width="286px" height="185px" viewBox="0 0 286 185" version="1.1" xmlns="http://www.w3.org/2000/svg" xmlns:xlink="http://www.w3.org/1999/xlink">
    <title>Artboard</title>
    <g id="Artboard" stroke="none" stroke-width="1" fill="none" fill-rule="evenodd" opacity="0.22">
        <g id="Group-7" transform="translate(-14.000000, 0.000000)" fill="#81868C">
            <rect id="Rectangle-Copy-33" x="14" y="87" width="6" height="15" rx="3"></rect>
            <rect id="Rectangle-Copy-11" x="42" y="57" width="6" height="75" rx="3"></rect>
            <rect id="Rectangle-Copy-29" x="182" y="55" width="6" height="75" rx="3"></rect>
            <rect id="Rectangle-Copy-37" x="238" y="55" width="6" height="75" rx="3"></rect>
            <rect id="Rectangle-Copy-31" x="28" y="76" width="6" height="37" rx="3"></rect>
            <rect id="Rectangle-Copy-40" x="294" y="88" width="6" height="9" rx="3"></rect>
            <rect id="Rectangle-Copy-35" x="210" y="84" width="6" height="17" rx="3"></rect>
            <rect id="Rectangle-Copy-39" x="280" y="84" width="6" height="17" rx="3"></rect>
            <rect id="Rectangle-Copy-31" x="196" y="74" width="6" height="37" rx="3"></rect>
            <rect id="Rectangle-Copy-36" x="224" y="74" width="6" height="37" rx="3"></rect>
            <rect id="Rectangle-Copy-38" x="266" y="74" width="6" height="37" rx="3"></rect>
            <rect id="Rectangle-Copy-12" x="70" y="26" width="6" height="133" rx="3"></rect>
            <rect id="Rectangle-Copy-20" x="126" y="26" width="6" height="133" rx="3"></rect>
            <rect id="Rectangle-Copy-21" x="140" y="36" width="6" height="113" rx="3"></rect>
            <rect id="Rectangle-Copy-22" x="154" y="44" width="6" height="97" rx="3"></rect>
            <rect id="Rectangle-Copy-15" x="84" y="0" width="6" height="185" rx="3"></rect>
            <rect id="Rectangle-Copy-16" x="98" y="26" width="6" height="133" rx="3"></rect>
            <rect id="Rectangle-Copy-24" x="168" y="26" width="6" height="133" rx="3"></rect>
            <rect id="Rectangle-Copy-19" x="112" y="44" width="6" height="97" rx="3"></rect>
            <rect id="Rectangle-Copy-26" x="56" y="44" width="6" height="97" rx="3"></rect>
            <rect id="Rectangle-Copy-25" x="252" y="44" width="6" height="97" rx="3"></rect>
        </g>
    </g>
</svg>