<svg width="24" height="24" viewBox="0 0 24 24"><path d="M12.588 2a9.636 9.636 0 11-5.191 17.764L4.05 20.873H3.88a.527.527 0 01-.382-.146.555.555 0 01-.146-.545l1.055-3.546A9.627 9.627 0 0112.588 2zm4.102 2.103A8.555 8.555 0 005.48 16.336V16.627a.564.564 0 010 .118l-.791 2.773 2.609-.863h.172a.373.373 0 01.1 0 .173.173 0 01.091 0c.04.007.077.022.11.045l.287.188a8.51 8.51 0 004.53 1.294A8.555 8.555 0 0016.69 4.103zM16.9 13a.6.6 0 010 1.2H8.1a.6.6 0 010-1.2h8.8zm0-4a.6.6 0 010 1.2H8.1a.6.6 0 110-1.2h8.8z" fill-rule="evenodd"/></svg>