<svg width="24" height="24" viewBox="0 0 24 24"><path d="M12.906 5.002a.547.547 0 01.415.141.557.557 0 01.217.425v12.5h7.896v-.019a.566.566 0 110 1.132H2.566a.566.566 0 110-1.132h.774V6.73a.557.557 0 01.49-.557zm-.529 1.207L4.472 7.23v10.839h7.905V6.209zm7.981 1.717c.313 0 .567.254.567.566v8.604a.566.566 0 11-1.133 0V9.06h-5.028a.566.566 0 010-1.133zm-9.867 7.916c.26 0 .471.21.471.471a.481.481 0 01-.471.472H6.443a.472.472 0 110-.943zm7.905-.293c.25.015.444.222.444.472a.481.481 0 01-.472.471h-3.16a.481.481 0 01-.472-.471c0-.26.211-.472.472-.472zm-7.905-2.424a.481.481 0 01.471.471c0 .26-.21.472-.471.472H6.443a.472.472 0 110-.943zm7.905-.048c.248.02.44.224.444.472 0 .26-.212.472-.472.472h-3.16a.472.472 0 01-.472-.472.481.481 0 01.472-.472zm0-2.415c.25.015.444.222.444.472a.481.481 0 01-.472.472h-3.16a.481.481 0 01-.472-.472c0-.26.211-.472.472-.472zm-7.905-.245a.481.481 0 01.471.472c0 .26-.21.471-.471.471H6.443a.472.472 0 110-.943zm0-2.708a.472.472 0 110 .944H6.443a.472.472 0 110-.944z" fill-rule="evenodd"/></svg>