<svg viewBox="0 0 24 24" xmlns="http://www.w3.org/2000/svg"><path d="M4 5.47V16.2c-.005.53.247 1.038.7 1.414.452.375 1.067.587 1.71.587h.38v.314c0 1.096 1.08 1.985 2.41 1.985h8.372c.642.004 1.26-.203 1.716-.576.456-.373.712-.88.712-1.41V7.785C20 6.689 18.921 5.8 17.59 5.8h-.38v-.314c0-1.096-1.08-1.985-2.41-1.985H6.428c-.639-.004-1.254.201-1.71.57-.454.37-.713.873-.718 1.4zm13.59 1.234c.715 0 1.294.477 1.294 1.065V18.5a.976.976 0 01-.372.764 1.443 1.443 0 01-.921.317H9.219a1.45 1.45 0 01-.927-.306.982.982 0 01-.385-.76v-.313H14.8c1.33 0 2.41-.89 2.41-1.986V6.704h.38zm-2.79-2.3c.714 0 1.293.478 1.293 1.066V16.2a.976.976 0 01-.372.763 1.443 1.443 0 01-.921.318H6.428a1.45 1.45 0 01-.926-.307.982.982 0 01-.386-.759V5.485a.976.976 0 01.372-.763c.244-.203.575-.317.921-.317H14.8z" fill-rule="evenodd"/></svg>