<?xml version="1.0" encoding="UTF-8"?>
<svg width="16px" height="18px" viewBox="0 0 16 18" version="1.1" xmlns="http://www.w3.org/2000/svg" xmlns:xlink="http://www.w3.org/1999/xlink">
    <title>F7AB60C0-234A-41E1-870A-02BBFFA57D46</title>
    <g id="In-deposition" stroke="none" stroke-width="1" fill="none" fill-rule="evenodd">
        <g id="3.1.In-depo.copy" transform="translate(-1098.000000, -618.000000)" fill="#C09853">
            <g id="Summary" transform="translate(1057.000000, 486.000000)">
                <g id="Invite-button" transform="translate(37.000000, 129.000000)">
                    <g id="Foundations/Icons/Copy" transform="translate(4.000000, 3.000000)">
                        <path d="M14.5301168,1.00006988 L3.79987717,1.00006988 C3.2707465,0.995182605 2.76188303,1.24682585 2.38628368,1.69919231 C2.01068432,2.15155876 1.79943814,2.76720521 1.79945392,3.40942278 L1.79945392,3.79081475 L1.48521119,3.79081475 C0.388873855,3.79081475 -0.499942423,4.86948659 -0.499942423,6.20009572 L-0.499942423,14.5721145 C-0.503969228,15.214313 -0.296631191,15.8319134 0.0760900078,16.287773 C0.448811207,16.7436326 0.956064734,17 1.48521119,17 L12.2154509,17 C13.3117882,17 14.2005452,15.9213282 14.2005452,14.590719 L14.2005452,14.2093271 L14.5147879,14.2093271 C15.6111253,14.2093271 16.499942,13.1306552 16.499942,11.8000461 L16.499942,3.42802727 C16.5039635,2.78904054 16.2987243,2.17425936 15.9293183,1.71893835 C15.5599122,1.26361735 15.0566015,1.00505702 14.5301168,1.00006988 Z M13.2961393,14.590719 C13.2961393,15.3048297 12.8191616,15.8837308 12.2307798,15.8837308 L1.5005401,15.8837308 C1.21534264,15.8887118 0.940409568,15.7546862 0.737288203,15.5116575 C0.534166838,15.2686288 0.41974124,14.936895 0.41974124,14.590719 L0.41974124,6.21870021 C0.415747688,5.87256009 0.526176231,5.53887769 0.726416441,5.29235216 C0.926656652,5.04582663 1.19998421,4.90708392 1.48521119,4.90708392 L1.79945392,4.90708392 L1.79945392,11.8000461 C1.79945392,13.1306552 2.68821093,14.2093271 3.78454826,14.2093271 L13.2961393,14.2093271 L13.2961393,14.590719 Z M15.5954764,11.8000461 C15.5954764,12.5141568 15.1184987,13.0930579 14.5301168,13.0930579 L3.79987717,13.0930579 C3.51467972,13.0980388 3.23974664,12.9640133 3.03662528,12.7209846 C2.83350391,12.4779558 2.71907831,12.146222 2.71907831,11.8000461 L2.71907831,3.42802727 C2.71508476,3.08188715 2.8255133,2.74820475 3.02575351,2.50167922 C3.22599373,2.25515369 3.49932128,2.11627696 3.78454826,2.11641099 L14.5147879,2.11641099 C14.7999854,2.11143004 15.0749185,2.2454556 15.2780398,2.48848432 C15.4811612,2.73151303 15.5954764,3.06324683 15.5954764,3.40942278 L15.5954764,11.8000461 Z" id="Combined-Shape" transform="translate(8.000000, 9.000000) rotate(-90.000000) translate(-8.000000, -9.000000) "></path>
                    </g>
                </g>
            </g>
        </g>
    </g>
</svg>