<svg width="24" height="24" viewBox="0 0 24 24"><path d="M11.38 2a5.94 5.94 0 015.844 5.586c.555.01 1 .462 1 1.017v2.88a1.009 1.009 0 01-1.026 1.017h-.267a1.009 1.009 0 01-1.009-1.017V10.44a.664.664 0 00-.206.491v.233a1.88 1.88 0 01-1.863 1.896h-2.965a1.138 1.138 0 01-1.13-1.146 1.147 1.147 0 011.147-1.164h.483a1.517 1.517 0 011.491 1.466h.992a1.017 1.017 0 001-1.035v-.233a1.526 1.526 0 011.069-1.465V8.62a1 1 0 01.267-.673 6.035 6.035 0 00-.06-.69H6.603a5.88 5.88 0 00-.06.776l.095 1.604a4.207 4.207 0 004.13 4.31.517.517 0 110 1.035 5.078 5.078 0 01-3.052-1.026 7.983 7.983 0 00-4.682 7.267.517.517 0 11-1.034 0 9.034 9.034 0 014.905-8.017A5.362 5.362 0 015.612 9.68L5.51 8.034A5.957 5.957 0 0111.379 2zm10.103 13.026c.285 0 .517.231.517.517v5.595a.517.517 0 01-.517.517h-8.466a.517.517 0 01-.517-.517v-5.595c0-.286.232-.517.517-.517zm-.517 1.034h-7.432v4.56h7.432v-4.56zm-9.578-4.44h-.483a.284.284 0 00-.267.294.284.284 0 00.267.31h1.112a.655.655 0 00-.63-.603zm5.84-3.176l-.047.004h-.224a.422.422 0 01-.155.07.155.155 0 000 .085v2.88c0 .082.064.15.146.155h.268a.147.147 0 00.146-.155v-2.88a.147.147 0 00-.181-.155zm-5.849-5.41a4.828 4.828 0 00-4.5 3.182h9a4.845 4.845 0 00-4.5-3.182z" fill-rule="evenodd"/></svg>