<svg width="24" height="24" viewBox="0 0 24 24" xmlns="http://www.w3.org/2000/svg"><path d="M14.128 1a2.21 2.21 0 012.153 2.257v1.052h5.69a.569.569 0 010 1.138h-2.04v15.087A2.475 2.475 0 0117.458 23H7.083a2.466 2.466 0 01-2.466-2.466V5.447H2.57a.569.569 0 110-1.138h5.68V3.257A2.219 2.219 0 0110.411 1zm4.666 4.533h-13v15.001c-.001.72.57 1.308 1.289 1.328h10.374c.735 0 1.332-.593 1.337-1.328V5.533zm-10.46 2.74c.315 0 .57.255.57.57v9.71a.569.569 0 01-1.138 0v-9.71c0-.315.254-.57.568-.57zm3.879 0c.314 0 .569.255.569.57v9.71a.569.569 0 01-1.138 0v-9.71c0-.315.255-.57.569-.57zm3.603.077a.569.569 0 01.854.492v9.71a.569.569 0 01-1.138 0v-9.71c0-.203.108-.39.284-.492zm-1.688-6.212h-3.717c-.59.03-1.045.529-1.024 1.119v1.052h5.766V3.257a1.072 1.072 0 00-1.025-1.12z" fill-rule="evenodd"/></svg>