<svg width="24" height="24" viewBox="0 0 24 24" xmlns="http://www.w3.org/2000/svg"><path d="M21.434 14.448c.302 0 .55.246.566.56 0 .156-.06.306-.166.417a.555.555 0 01-.4.172h-2.047l-.812 2.681a.56.56 0 01-.537.413H16.49v2.69c0 .326-.254.59-.566.59a.578.578 0 01-.567-.59v-2.69H8.632v2.72c0 .325-.253.589-.566.589a.578.578 0 01-.566-.59v-2.69H5.887a.569.569 0 01-.547-.412l-.802-2.681H2.566a.578.578 0 01-.566-.59c0-.325.253-.589.566-.589zm-3.208 1.179H5.774l.566 1.915h11.32l.566-1.915zM12.113 2c1.636 0 3.079 1.116 3.55 2.747.472 1.63-.139 3.39-1.503 4.33 1.5.792 2.448 2.393 2.453 4.144a.519.519 0 01-.056.245h-1.02a.517.517 0 01-.056-.245c-.005-1.925-1.5-3.485-3.349-3.496l-.183.006c-1.762.11-3.157 1.63-3.157 3.49a.517.517 0 01-.056.245H7.717a.519.519 0 01-.057-.245c-.001-1.74.926-3.336 2.406-4.144-1.364-.94-1.975-2.7-1.503-4.33C9.035 3.116 10.477 2 12.113 2zm7.113 7.512c.54 0 1.01.38 1.143.924a1.247 1.247 0 01-.577 1.38v1.395a.517.517 0 01-.056.246h-1.019a.517.517 0 01-.057-.246v-1.394a1.247 1.247 0 01-.576-1.381 1.189 1.189 0 011.142-.924zM12.13 3.165c-1.426.002-2.582 1.206-2.582 2.69.005 1.489 1.165 2.692 2.595 2.692l.163-.006c1.35-.093 2.415-1.264 2.412-2.692-.003-1.484-1.162-2.686-2.588-2.684z" fill-rule="evenodd"/></svg>