<svg width="18" height="19" viewBox="0 0 18 19" xmlns="http://www.w3.org/2000/svg"><path d="M16.895 13.6c.297 0 .544.195.595.451l.01.1v3.982H.5V14.15c0-.304.271-.55.605-.55.298 0 .545.195.596.451l.01.1v2.881h14.578V14.15c0-.27.214-.495.497-.541l.109-.009zM8.997 0c.3 0 .548.207.6.48l.01.104-.001 10.886 4.605-4.075a.628.628 0 01.86.033c.204.211.214.527.04.748l-.074.078-6.04 5.346-6.034-5.346a.568.568 0 01-.035-.826.628.628 0 01.774-.097l.087.064 4.599 4.074V.584c0-.322.273-.584.61-.584z" fill-rule="evenodd"/></svg>