<svg width="24" height="24" viewBox="0 0 24 24" xmlns="http://www.w3.org/2000/svg"><path d="M15.197 2.747a2.674 2.674 0 013.708 0l1.848 1.859c.487.484.759 1.143.756 1.829a2.555 2.555 0 01-.716 1.78L7.871 21.136a.686.686 0 01-.298.169l-5.845 1.153h-.13a.587.587 0 01-.417-.17.577.577 0 01-.169-.536l1.163-5.845a.577.577 0 01.16-.308zm7.207 18.519a.596.596 0 010 1.193H11.698a.596.596 0 010-1.193zM14.372 5.252L3.358 16.315l-.994 4.792 4.791-.945L18.22 9.1l-3.847-3.847zm3.648-1.67a1.461 1.461 0 00-1.988 0l-.815.825 3.837 3.857.845-.855v.03a1.382 1.382 0 000-1.988z" fill-rule="evenodd"/></svg>