<?xml version="1.0" encoding="UTF-8"?><svg width="64" height="78" xmlns="http://www.w3.org/2000/svg"><g fill="none" fill-rule="evenodd"><path d="M12.3 72a7 7 0 01-7-7V36c-.7 0-1.1.2-1.7.5-1 .4-1.5 1.3-1.6 2.3v34.3C2 74.7 3.6 76 5.6 76h47.7c1.6.1 3-.8 3.6-2.3l.1-.6V72H12.3z" fill="#C09853" fill-rule="nonzero"/><path d="M5.3 34.4V38c-1 0-1.8.7-1.8 1.1v34.4c0 .5.8 1 1.9 1H53c.5 0 1.1-.1 1.6-.4l.3-.6V72h3.5v2c-.4 2.3-2.6 4-5.4 4H5.4c-3 0-5.4-2-5.4-4.6V39c0-2 1.4-3.7 3.3-4.2.7-.2 1.3-.4 2-.4zM54 16.3A1.7 1.7 0 0156 18v4h4c.9 0 1.7.9 1.7 1.9v12c1.4.9 2.3 2.3 2.4 4v24.5c0 2.6-2.4 4.7-5.4 4.7h-46a4.7 4.7 0 01-4.8-4.7V31.7c0-2.4 2.1-4.3 4.9-4.6v-9c0-1 .7-1.8 1.7-1.8zm-27 14.6H13.2c-1 0-1.6.5-1.6.8v32.7c0 .5.4.8.8.8h46.1c1 0 1.6-.5 1.6-.8V40c0-.3-.6-.9-1.6-.9H36c-1.5 0-2.8-.6-3.7-1.8l-4.6-6a.9.9 0 00-.7-.3zm31-5.3H21.7V27H27c1.5 0 2.8.7 3.7 1.9l4.6 6c.2.2.4.3.7.3h22v-9.6zm-5.7-5.8H16.2V27h2.1V24c0-1 .8-1.8 1.8-1.8h32.3v-2.3zM23.8 1.9h.2c.6.1 1.2.5 1.4 1.1l3.3 6.7a1.8 1.8 0 01-3.2 1.5l-3.2-6.6c-.3-.6-.3-1.3 0-1.9.4-.5 1-.8 1.7-.8zM45 3c.4-.9 1.5-1.2 2.3-.8 1 .4 1.3 1.5.8 2.4L45 11.2a1.8 1.8 0 01-2.3.8 1.8 1.8 0 01-.9-2.3zM34.3.3c.6-.4 1.3-.4 1.8 0 .6.3 1 1 .9 1.6v6.6a1.8 1.8 0 01-1.8 1.8c-1 0-1.7-.8-1.7-1.8V2c0-.7.2-1.3.8-1.6z" fill="#433E3B"/></g></svg>