<?xml version="1.0" encoding="UTF-8"?><svg width="96" height="96" xmlns="http://www.w3.org/2000/svg"><g fill="none" fill-rule="evenodd"><path d="M23.7 89c-4.8 0-8.7-4-8.7-8.8V44c-.8 0-1.3.2-2 .6a3.4 3.4 0 00-2 3v42.8c0 2 2 3.6 4.5 3.6h59c1.9.1 3.7-1 4.4-2.9l.1-.7V89H23.7z" fill="#C09853" fill-rule="nonzero"/><path d="M15.4 42v4.3c-1.2 0-2.1.8-2.1 1.4v42.6c0 .6 1 1.3 2.2 1.3h58a3 3 0 001.8-.6c.3-.2.4-.4.4-.7v-1.7H80V91c-.4 2.9-3.2 5-6.6 5H15.5C12 96 9 93.5 9 90.3V47.7a5.8 5.8 0 014-5.3c.8-.3 1.6-.4 2.4-.4zm59.7-22a2 2 0 011.5.6c.4.4.6 1 .6 1.6v5h4.7c1.2 0 2.2 1 2.2 2.2v14.9c1.7 1 2.8 2.7 2.9 4.8v30.2c0 3.1-3 5.7-6.5 5.7H24.7a5.7 5.7 0 01-5.7-5.8V39.1c0-3 2.6-5.4 5.8-5.7V22.2c0-1.2 1-2.2 2.2-2.2zM42.2 38H25.6c-1.2 0-2 .7-2 1v40.3c0 .5.5 1 1 1h55.9c1.1 0 1.9-.7 1.9-1V49c0-.4-.8-1-2-1H53.2c-1.8 0-3.4-.9-4.5-2.3L43 38.4a1 1 0 00-.9-.4zm37.6-6.5H36v1.8h6.2c1.8 0 3.4.8 4.5 2.2l5.6 7.4c.2.3.5.4.8.4h26.7V31.5zM73 24.3H29v9h2.7v-4c0-1.1 1-2.1 2.1-2.1H73v-2.9zM38 2h.2A2 2 0 0140 3.4l3.8 8.4c.2.5.3 1.1 0 1.7-.1.6-.5 1-1 1.3l-.9.2a2 2 0 01-1.8-1.3l-3.8-8.4c-.4-.7-.4-1.6 0-2.3a2 2 0 012-1zm26 2.2a2 2 0 012.8-1 2 2 0 011 2.8L64 13.8a2 2 0 01-2.8 1 2 2 0 01-1-2.8zM51 .3c.6-.4 1.4-.4 2 0 .7.5 1 1.3 1 2v8.5c0 .6-.2 1.1-.6 1.5-.4.5-.9.7-1.4.7-1.1 0-2-1-2-2.2V2.4c0-.8.3-1.6 1-2z" fill="#433E3B"/></g></svg>