<svg xmlns="http://www.w3.org/2000/svg" width="96" height="96" viewBox="0 0 96 96"><path fill="#C09853" fill-rule="evenodd" d="M65.058 31.607a1.585 1.585 0 011.59 1.591v3.683h3.573a1.585 1.585 0 011.591 1.591v11.002a4.111 4.111 0 012.208 3.494v22.167c0 2.319-2.201 4.216-4.903 4.216h-41.97a4.267 4.267 0 01-4.248-3.897 3.442 3.442 0 010-.364v-7.515a4.969 4.969 0 002.04.436h1.442v7.079c0 .434.352.786.786.786h41.95c.883 0 1.429-.48 1.429-.74V52.967c0-.26-.546-.74-1.43-.74H48.568a4.3 4.3 0 01-3.39-1.682l-4.157-5.41a.812.812 0 00-.65-.312H27.804c-.883 0-1.422.48-1.422.753v12.34h-1.442a4.969 4.969 0 00-2.04.416V45.39c0-2.13 1.949-3.871 4.397-4v-8.19c0-.88.713-1.592 1.592-1.592zM37.195 53.019c.61-.15 1.253.05 1.669.521l4.37 4.378 2.19 2.143 1.11 1.104.578.597a1.676 1.676 0 010 2.384l-1.675 1.676-2.19 2.189-4.37 4.37a1.683 1.683 0 11-2.384-2.377l1.994-1.993 1.65-1.69 1.688-1.681H24.94a1.689 1.689 0 110-3.371h1.007v.02h15.899l-5.365-5.365a1.689 1.689 0 01.715-2.905zm-1.546-12.95v1.3h4.715c.121-.01.243-.01.364 0h.123a2.773 2.773 0 011.767.65l.21.137c.34.24.645.531.9.862l4.157 5.417c.154.203.395.32.65.318H68.63V40.09l-32.981-.02zm27.817-5.28H30.48v6.56h1.98v-2.877c0-.879.713-1.591 1.592-1.591h29.415v-2.092zM36.837 18.953a1.598 1.598 0 012.092.645l2.935 6.047a1.598 1.598 0 01-1.428 2.292 1.604 1.604 0 01-1.416-.896l-2.955-6.04a1.598 1.598 0 01.772-2.048zm19.9.645a1.61 1.61 0 012.89 1.416l-2.954 6.027a1.598 1.598 0 01-1.455.896 1.591 1.591 0 01-1.429-2.306zm-8.9-2.503c.842 0 1.54.655 1.594 1.496v6.027c0 .883-.715 1.598-1.598 1.598a1.598 1.598 0 01-1.591-1.598v-6.027a1.598 1.598 0 011.594-1.496z"/></svg>