<svg xmlns="http://www.w3.org/2000/svg" xmlns:xlink="http://www.w3.org/1999/xlink" viewBox="0 0 84.71 80.8"><defs><style>.cls-1,.cls-2{fill:none;}.cls-1{clip-rule:evenodd;}.cls-3{clip-path:url(#clip-path);}.cls-4{clip-path:url(#clip-path-2);}.cls-5{fill:#bb8951;}.cls-6{clip-path:url(#clip-path-3);}.cls-7{clip-path:url(#clip-path-5);}.cls-8{fill:#3b3634;}.cls-9{clip-path:url(#clip-path-7);}.cls-10{fill:#e8a53b;}.cls-11{clip-path:url(#clip-path-9);}</style><clipPath id="clip-path" transform="translate(-677 -254.18)"><polygon class="cls-1" points="684.46 297.81 686.82 303 707.01 303 709.85 297.81 684.46 297.81"/></clipPath><clipPath id="clip-path-2" transform="translate(-677 -254.18)"><rect class="cls-2" width="1440" height="766"/></clipPath><clipPath id="clip-path-3" transform="translate(-677 -254.18)"><path class="cls-1" d="M729.46,308.81l2.36,5.19H752l2.84-5.19h-9.26a13,13,0,0,1-7.35,0Z"/></clipPath><clipPath id="clip-path-5" transform="translate(-677 -254.18)"><path class="cls-2" d="M737.56,289l-5.37,11.35a10,10,0,0,0,1.94,3.92L741.81,288a10.13,10.13,0,0,0-4.29,1Zm-2.38,16.44a10,10,0,0,0,13.43,0Zm21.17,1.22a2.55,2.55,0,0,0-2.22-1.25l-1.55-3.34a11.49,11.49,0,0,1-7.07,6.76h7L751.24,311H732.38l-1.28-2.21h7.14a11.46,11.46,0,0,1-7-6.62l-1.52,3.19h-.31a2.5,2.5,0,0,0-2.16,1.29,2.36,2.36,0,0,0,0,2.38l2.38,4.22a2.57,2.57,0,0,0,2.23,1.27h19.88a2.57,2.57,0,0,0,2.2-1.25l2.45-4.24a2.31,2.31,0,0,0,0-2.38Zm-21.21-1.25a10,10,0,0,0,13.43,0ZM737.52,289l-5.37,11.36a10,10,0,0,0,2,3.92l7.67-16.29A10.13,10.13,0,0,0,737.52,289Zm-2.38,16.44a10,10,0,0,0,13.43,0Zm0,0a10,10,0,0,0,13.43,0ZM737.52,289l-5.37,11.36a10,10,0,0,0,2,3.92l7.67-16.29A10.13,10.13,0,0,0,737.52,289Zm7.68-6.51a.78.78,0,0,1-.9.56l-20.24-4.76v-1.59l20.63,4.9A.74.74,0,0,1,745.2,282.44Zm-17.07,37.7a3,3,0,0,1,2.6,1.5H709a3,3,0,0,1,2.61-1.5Zm7.32,4.94c.36,0,.66.29.66.85a.66.66,0,0,1-.66.65H704.29c-.36,0-.66-.28-.66-.84a.66.66,0,0,1,.66-.66ZM695.1,271.32a.75.75,0,0,1-.56-.89.83.83,0,0,1,.85-.53l20.24,4.77v1.54Zm10.34,24.23H688.62L697,277.69Zm.87,5.64H687.46L686.18,299h21.43ZM720.6,271V316.7h-1.5V271c.24,0,.48.06.72.08a5.18,5.18,0,0,0,.78-.09Zm-.75-8.33a2.51,2.51,0,1,1-2.52,2.51A2.52,2.52,0,0,1,719.85,262.63Zm25.58,15.61L724,273.15v-3.77a6,6,0,1,0-8.33,0v1.72l-19.52-4.59a4.18,4.18,0,0,0-5,3.12,4.13,4.13,0,0,0,.51,3.16,4.08,4.08,0,0,0,2.58,1.88l.41.09-9.84,20.84h-.29a2.51,2.51,0,0,0-2.22,1.25,2.41,2.41,0,0,0,0,2.38l2.45,4.23a2.54,2.54,0,0,0,2.21,1.19H706.8A2.49,2.49,0,0,0,709,303.4l2.45-4.22a2.36,2.36,0,0,0,0-2.38,2.51,2.51,0,0,0-2.21-1.26L700,276l15.68,3.73v36.9h-4.11a6.42,6.42,0,0,0-6.21,5h-1.07a4.07,4.07,0,0,0-2.94,1.28,4.18,4.18,0,0,0,2.94,7.1H735.4a4.24,4.24,0,0,0,2.89-7.18,4.05,4.05,0,0,0-2.89-1.2h-1a6.46,6.46,0,0,0-6.24-5H724V281.73l15.23,3.57-.82,1.74a11.46,11.46,0,0,1,7.14,0l-.35-.73a4.18,4.18,0,0,0,.22-8.07Zm-10.25,27.18a10,10,0,0,0,13.43,0Zm0,0a10,10,0,0,0,13.43,0Zm11.26-16.36a9.94,9.94,0,0,0-4.31-1.1l7.64,16.21a10,10,0,0,0,1.91-4Zm-11.26,16.36a10,10,0,0,0,13.43,0Zm0,0a10,10,0,0,0,13.43,0Zm0,0a10,10,0,0,0,13.43,0Z"/></clipPath><clipPath id="clip-path-7" transform="translate(-677 -254.18)"><path class="cls-1" d="M743.23,302.32a1.34,1.34,0,0,1-2.28,1,1.32,1.32,0,0,1-.29-1.45,1.33,1.33,0,0,1,2.57.49Zm-1.34-10A1.09,1.09,0,0,1,743,293.4V299a1.11,1.11,0,0,1-2.2,0V293.4a1.07,1.07,0,0,1,.32-.77A1.06,1.06,0,0,1,741.89,292.31Zm4.55-3.25a9.94,9.94,0,0,0-4.31-1.1l-.18-.38-.18.38a10,10,0,0,0-9.89,10,10.59,10.59,0,0,0,.27,2.38,10,10,0,0,0,16.46,5.1,9.56,9.56,0,0,0,1.19-1.19,10.1,10.1,0,0,0-3.36-15.21Z"/></clipPath><clipPath id="clip-path-9" transform="translate(-677 -254.18)"><polygon class="cls-2" points="741.95 287.58 741.77 287.96 742.13 287.96 741.95 287.58"/></clipPath></defs><title>aAsset 56404</title><g id="Layer_2" data-name="Layer 2"><g id="Layer_1-2" data-name="Layer 1"><g class="cls-3"><g class="cls-4"><rect class="cls-5" x="2.46" y="38.63" width="35.39" height="15.19"/></g></g><g class="cls-6"><g class="cls-4"><rect class="cls-5" x="47.46" y="49.63" width="35.39" height="15.19"/></g></g><g class="cls-7"><g class="cls-4"><rect class="cls-8" width="84.71" height="80.8"/></g></g><g class="cls-9"><g class="cls-4"><rect class="cls-10" x="49.88" y="28.41" width="30.06" height="30.45"/></g></g><g class="cls-11"><g class="cls-4"><rect x="59.77" y="28.41" width="10.36" height="10.38"/></g></g></g></g></svg>