<svg width="24" height="24" viewBox="0 0 24 24" xmlns="http://www.w3.org/2000/svg"><path d="M12 2c5.52.005 9.995 4.48 10 10 0 5.523-4.477 10-10 10S2 17.523 2 12 6.477 2 12 2zm0 1.132a8.868 8.868 0 000 17.736A8.877 8.877 0 0020.868 12 8.868 8.868 0 0012 3.132zm2.906 5.35a.575.575 0 01.802 0 .575.575 0 010 .782l-2.897 2.83 2.897 2.83a.575.575 0 010 .802.566.566 0 01-.802.01l-2.915-2.83-2.916 2.83a.594.594 0 01-.396.16.566.566 0 01-.396-.943l2.896-2.83-2.896-2.83a.567.567 0 11.792-.812l2.916 2.83z"/></svg>