<svg xmlns="http://www.w3.org/2000/svg" width="96" height="96" viewBox="0 0 96 96"><g fill="none" fill-rule="evenodd"><path d="M42.369 61.883H28.545a5.495 5.495 0 01-3.94-1.678 5.802 5.802 0 01-1.63-4.05V36.569a3.561 3.561 0 00-1.518.39 2.24 2.24 0 00-1.27 1.922V63c0 1.277 1.31 2.32 2.893 2.32h23.523c-.994-.723-1.41-1-1.922-1.493-.06-.058-.483-.4-2.312-1.943z"/><path fill="#C09853" d="M23 34.377v2.843a3.207 3.207 0 00-2.227 2.887l-.004.214v20.77a3.208 3.208 0 003.026 3.202l.182.005h21.23a26.862 26.862 0 003.869 2.471l.586.298H23.977a5.977 5.977 0 01-5.973-5.742l-.004-.28v-20.77a5.979 5.979 0 015-5.898zm35.362 7.398a17.17 17.17 0 018.1 2.17c.956.522 1.88 1.1 2.769 1.73a34.477 34.477 0 017.592 7.662c.325.476.343 1.098.046 1.592-.318.455-7.554 10.837-17.43 11.516l-.408.022h-.623a17.17 17.17 0 01-8.1-2.169 28.985 28.985 0 01-5.77-4.154 36.046 36.046 0 01-2.676-2.769c-.701-.785-1.356-1.61-1.962-2.47-.3-.479-.3-1.089 0-1.568a34.754 34.754 0 014.108-4.731 33.808 33.808 0 013.277-2.77 19.062 19.062 0 0111.077-4.061zm.115 2.77c-1.947.03-3.866.47-5.63 1.292a22.615 22.615 0 00-4.616 2.769 34.385 34.385 0 00-5.423 5.515 36.208 36.208 0 002.884 3.254c.984 1 2.041 1.926 3.162 2.77a16.154 16.154 0 008.81 3.524l.42.03h.185a12.438 12.438 0 003.577-.532 26.33 26.33 0 0012-9.046 33.97 33.97 0 00-4.615-4.915 25.177 25.177 0 00-2.77-2.031 15.162 15.162 0 00-7.984-2.63zm3.45 3.452l.242.147.531.3.215.173a7.154 7.154 0 012.554 5.735 6.923 6.923 0 01-2.616 5.508l-.222.169-.254.184h-.23l-.185.116a7.085 7.085 0 01-2.47.923 6.738 6.738 0 01-1.177 0 7.085 7.085 0 01-3.542-.947l-.265-.16-.263-.178a7.27 7.27 0 01-2.253-2.592 6.923 6.923 0 01-.784-3.185 7.13 7.13 0 012.396-5.335l.211-.18.739-.53a7.108 7.108 0 017.373-.148zm1.327-20.622a5.977 5.977 0 015.973 5.753l.004.224v9.023c-.71-.45-1.444-.862-2.2-1.23l-.57-.27v-7.523a3.208 3.208 0 00-3.04-3.204l-.213-.004H30.9a3.208 3.208 0 00-3.204 3.04l-.004.214v20.77a3.208 3.208 0 003.026 3.202l.182.005h7.43a27.407 27.407 0 002.068 2.51l.24.26H30.9a5.977 5.977 0 01-5.973-5.754l-.004-.224v-17.1h-.048v-2.77l.048.001v-.946a5.977 5.977 0 015.743-5.973l.28-.004h32.308zm-4.892 22.362a4.385 4.385 0 100 8.769 4.385 4.385 0 000-8.77zm-15.439-3.9c-.776.7-1.522 1.431-2.238 2.192l-.531.577H33.23a1.385 1.385 0 01-.134-2.763l.134-.006h9.692zM54 36.606a1.385 1.385 0 01.133 2.763l-.133.006H33.23a1.385 1.385 0 01-.133-2.763l.134-.006H54z"/></g></svg>