<svg width="24" height="24" viewBox="0 0 24 24" xmlns="http://www.w3.org/2000/svg"><path d="M12 1.5c1.52 0 2.902.612 3.906 1.596a5.368 5.368 0 011.62 3.552l.007.278v2.41C19.05 10.766 20 12.771 20 14.989a7.745 7.745 0 01-2.347 5.543A8.055 8.055 0 0112 22.833a8.055 8.055 0 01-5.653-2.3A7.745 7.745 0 014 14.988c0-2.107.857-4.023 2.243-5.434l.224-.219v-2.41c0-1.49.624-2.846 1.627-3.83A5.571 5.571 0 0112 1.5zm0 6.82a6.846 6.846 0 00-4.812 1.95A6.582 6.582 0 005.2 14.99c0 1.846.76 3.512 1.988 4.718A6.846 6.846 0 0012 21.657a6.846 6.846 0 004.812-1.95 6.582 6.582 0 001.988-4.718 6.582 6.582 0 00-1.988-4.719A6.846 6.846 0 0012 8.32zm0 5.274c.393 0 .749.156 1.006.408s.416.601.416.987c0 .507-.279.942-.693 1.187l-.129.067v2.56h-1.2v-2.56c-.485-.225-.822-.696-.822-1.254 0-.386.159-.735.416-.987A1.432 1.432 0 0112 13.594zm0-10.917a4.363 4.363 0 00-3.062 1.247 4.195 4.195 0 00-1.271 3.002v1.497l.272-.165A8.05 8.05 0 0112 7.144c1.599 0 3.077.486 4.333 1.28V6.925l-.007-.249a4.201 4.201 0 00-1.264-2.753A4.363 4.363 0 0012 2.677z" fill-rule="evenodd"/></svg>