<svg xmlns="http://www.w3.org/2000/svg" width="96" height="96" viewBox="0 0 96 96"><path fill="#C09853" fill-rule="evenodd" d="M24.51 43.75v3.079c-.876.029-1.504.539-1.504.96v30.157c0 .451.706.953 1.61.953h40.802c.49.013.97-.146 1.362-.451a.785.785 0 00.275-.502V76.73h3.007v1.385a1.497 1.497 0 01-.057.333C69.758 80.478 67.818 82 65.418 82H24.615C22.018 82 20 80.224 20 77.946V47.79c.079-1.757 1.23-3.268 2.865-3.763a5.2 5.2 0 011.644-.277zm42.08-15.583c.397-.002.777.158 1.058.446.281.287.439.678.439 1.085v3.554h3.344c.827 0 1.496.689 1.496 1.539v10.582c1.234.659 2.027 1.951 2.073 3.38v21.389c0 2.239-2.065 4.066-4.602 4.066H31.056c-2.21 0-4-1.839-4.005-4.11v-28.43c0-2.096 1.813-3.808 4.124-4.024v-7.946c0-.846.667-1.531 1.49-1.531zM43.429 40.909h-11.74c-.829 0-1.335.47-1.335.722v28.51c0 .4.315.723.703.723h39.342c.83 0 1.342-.47 1.342-.722V48.753c0-.253-.513-.722-1.342-.722H51.092a3.98 3.98 0 01-3.175-1.604l-3.9-5.222a.738.738 0 00-.59-.296zm26.493-4.587H39.009v1.242h4.419a3.994 3.994 0 013.175 1.604l3.9 5.23c.14.187.359.296.59.296h18.849l-.021-8.372zm-4.827-5.085H34.161v6.327h1.855v-2.773c0-.85.67-1.54 1.496-1.54h27.582v-2.014zM40.49 15.417l.134.006c.538.051 1.006.422 1.216.964l2.695 5.959c.169.379.192.815.063 1.213a1.54 1.54 0 01-.747.902c-.2.109-.42.165-.643.164-.555-.002-1.06-.345-1.307-.886l-2.675-5.959a1.707 1.707 0 01.046-1.637c.293-.494.813-.772 1.352-.72zm18.354 1.532a1.445 1.445 0 011.946-.673c.72.358 1.018 1.24.665 1.971l-2.7 5.552a1.458 1.458 0 01-1.308.826 1.41 1.41 0 01-.637-.153 1.464 1.464 0 01-.76-.836c-.133-.37-.113-.779.054-1.135zm-9.255-2.719a1.281 1.281 0 011.465 0c.45.307.71.87.674 1.46v5.937c.002.419-.145.821-.408 1.118a1.332 1.332 0 01-.995.463c-.779 0-1.41-.708-1.41-1.58v-5.939c-.037-.59.223-1.152.674-1.459z"/></svg>