<svg xmlns="http://www.w3.org/2000/svg" width="24" height="24" viewBox="0 0 24 24"><g fill="none" fill-rule="evenodd"><path fill="#8591a6" d="M17.48 14.87a4.76 4.76 0 10-6.16-6.81 5 5 0 01.83.47 3.82 3.82 0 112.36 5.83c-.08.42-.2.82-.38 1.2a4.9 4.9 0 016.15 4.72.47.47 0 10.94 0c-.01-2.4-1.5-4.55-3.74-5.41z"/><path fill="#8591a6" fill-rule="nonzero" d="M10.85 17.51a4.77 4.77 0 10-4.29 0 5.82 5.82 0 00-3.69 5.44c0 .26.2.47.47.47.25 0 .45-.21.45-.47a4.9 4.9 0 019.82 0 .47.47 0 00.93 0c0-2.4-1.46-4.56-3.7-5.44zM4.87 13.3a3.83 3.83 0 117.66 0 3.83 3.83 0 01-7.66 0z"/><path stroke="#8591a6" stroke-linecap="round" stroke-linejoin="round" stroke-width=".96" d="M12.42 3.09V1M6.45 2.15l1.48 1.48M18.4 2.15l-1.48 1.48"/></g></svg>
