<svg width="24" height="24" viewBox="0 0 24 24" xmlns="http://www.w3.org/2000/svg"><path d="M7.71 5.014a5.48 5.48 0 012.463 10.377 6.696 6.696 0 014.247 6.256.536.536 0 01-1.071 0 5.643 5.643 0 00-11.287 0c0 .292-.234.53-.526.536A.536.536 0 011 21.647a6.696 6.696 0 014.247-6.256A5.48 5.48 0 017.71 5.014zm3.008-.498a5.471 5.471 0 117.088 7.834 6.696 6.696 0 014.295 6.227.545.545 0 11-1.081 0 5.634 5.634 0 00-5.634-5.625 4.783 4.783 0 00-1.435.201c.2-.444.347-.91.44-1.387.315.066.635.1.957.105a4.39 4.39 0 10-3.673-6.81 5.74 5.74 0 00-.957-.545zm.109 2.902a4.41 4.41 0 10-6.243 6.229 4.41 4.41 0 006.243-6.23z" fill-rule="evenodd"/></svg>