<svg width="13" height="16" viewBox="0 0 13 16" xmlns="http://www.w3.org/2000/svg" xmlns:xlink="http://www.w3.org/1999/xlink"><defs><filter x="-14.3%" y="-10.7%" width="128.6%" height="121.4%" filterUnits="objectBoundingBox" id="a"><feOffset in="SourceAlpha" result="shadowOffsetOuter1"/><feGaussianBlur stdDeviation=".5" in="shadowOffsetOuter1" result="shadowBlurOuter1"/><feColorMatrix values="0 0 0 0 0 0 0 0 0 0 0 0 0 0 0 0 0 0 0.3 0" in="shadowBlurOuter1"/></filter><path d="M294 839a1 1 0 011 1v12a1 1 0 01-1 1h-2a1 1 0 01-1-1v-12a1 1 0 011-1h2zm6.5 0a1 1 0 011 1v12a1 1 0 01-1 1h-2a1 1 0 01-1-1v-12a1 1 0 011-1h2z" id="b"/></defs><g transform="translate(-290 -838)" fill="none" fill-rule="evenodd"><use fill="#000" filter="url(#a)" xlink:href="#b"/><use fill="#E8E8E7" xlink:href="#b"/></g></svg>