<svg width="24" height="24" viewBox="0 0 24 24" xmlns="http://www.w3.org/2000/svg"><path d="M17.128 3a.48.48 0 01.48.48v2.448a.48.48 0 01-.48.48h-.68v1.136a2.064 2.064 0 01-.8 1.6l-2.096 1.696a.32.32 0 00-.168.248v1.12a.32.32 0 00.12.248l2.4 1.92c.495.385.79.973.8 1.6V17.4h.4a.48.48 0 01.48.48v2.448a.48.48 0 01-.48.48H6.48a.48.48 0 01-.48-.48V17.88a.48.48 0 01.48-.48h.376v-1.44a2.088 2.088 0 01.8-1.6l2.296-1.856a.296.296 0 00.12-.248v-1.224a.296.296 0 00-.12-.248l-2-1.664a2.072 2.072 0 01-.8-1.6V6.408H6.48a.48.48 0 01-.48-.48V3.48A.48.48 0 016.48 3zm-.504 15.36H6.96v1.488h9.664V18.36zm-1.16-11.952H8.112v1.144c-.002.343.154.668.424.88l2.024 1.6c.293.237.466.591.472.968v1.256c.003.388-.17.756-.472 1l-2.304 1.856a1.136 1.136 0 00-.424.88V17.4h.504l3.12-3.008a.456.456 0 01.28-.112c.11 0 .215.046.288.128L14.84 17.4h.92v-1.424a1.08 1.08 0 00-.408-.856l-2.4-1.92a1.28 1.28 0 01-.48-1v-1.112c0-.389.176-.757.48-1L15.048 8.4c.265-.215.418-.539.416-.88V6.408zm-3.744 8.84L9.488 17.4h4.248l-2.016-2.152zm.008-3.368c.22 0 .4.18.4.4v.4a.4.4 0 11-.8 0v-.4c0-.22.18-.4.4-.4zm0-3.2c.22 0 .4.18.4.4v2a.4.4 0 11-.8 0v-2c0-.22.18-.4.4-.4zm4.896-4.72H6.96v1.488h9.664V3.96z"/></svg>