<svg fill="none" xmlns="http://www.w3.org/2000/svg" viewBox="0 0 84 84">
<path d="M18.543 51.466a.855.855 0 01.6 1.05c-1.13 4.145 1.277 6.719 3.41 8.851l4.287 4.287V60.46a.855.855 0 111.71 0v7.26a.856.856 0 01-.855.856h-7.26a.856.856 0 110-1.71h5.195l-4.287-4.288c-2.103-2.102-5.262-5.337-3.85-10.51a.855.855 0 011.05-.6z" fill="#C09853"/>
<path d="M40.788 14.344l27.88 27.88c.722.861 1.039 2.324.799 3.568-.234 1.209-.957 2.614-1.91 3.604L50.384 66.569c-.99.953-2.395 1.677-3.604 1.91-1.244.24-2.707-.077-3.568-.799L15.332 39.8c-.722-.86-1.039-2.324-.799-3.567.234-1.21.957-2.615 1.91-3.605l17.173-17.173c.99-.953 2.395-1.676 3.605-1.91 1.243-.24 2.707.077 3.567.799zM37.6 15.509c-.95.183-1.843.597-2.57 1.361L17.857 34.042c-.764.727-1.177 1.621-1.36 2.57-.177.916-.191 1.472.249 1.774l.455.454 22.627-22.627-.454-.455c-.302-.44-.858-.426-1.774-.249zm5.158 48.888L65.385 41.77 41.242 17.627 18.615 40.255zm1.869 1.869c.301.44.857.426 1.774.249.949-.183 1.842-.596 2.569-1.36l17.173-17.173c.764-.726 1.177-1.62 1.36-2.569.177-.916.191-1.473-.249-1.774l-.455-.455-22.627 22.627z" fill="#c09853"/>
<path d="M65.457 30.558a.855.855 0 01-.6-1.05c1.13-4.145-1.277-6.718-3.41-8.85L57.16 16.37v5.195a.856.856 0 11-1.71 0v-7.26a.856.856 0 01.855-.856h7.26a.856.856 0 110 1.711H58.37l4.287 4.287c2.103 2.103 5.262 5.338 3.85 10.51a.855.855 0 01-1.05.601z" fill="#C09853"/>
</svg>