<svg fill="none" xmlns="http://www.w3.org/2000/svg" viewBox="0 0 76 76">
<path d="M18.365 43.953a.855.855 0 01.6 1.05c-1.129 4.145 1.278 6.719 3.41 8.851l4.288 4.287v-5.195a.855.855 0 111.71 0v7.26a.855.855 0 01-.855.856h-7.26a.855.855 0 110-1.71h5.195l-4.288-4.288c-2.102-2.102-5.261-5.337-3.85-10.51a.856.856 0 011.05-.6z" fill="#C09853"/>
<path d="M32.851 14.363l.835.835 1.415 1.414 25.858 25.859c.706.781 1.171 2.013 1.171 3.049s-.465 2.268-1.171 3.049L49.247 60.281c-.781.706-2.013 1.171-3.049 1.171s-2.268-.465-3.049-1.171L17.181 34.313l-1.414-1.414-.726-.726c-.706-.781-1.171-2.013-1.171-3.049s.465-2.268 1.171-3.049l11.712-11.712c.781-.706 2.013-1.171 3.049-1.171s2.268.465 3.049 1.171zm-3.049.829c-.72 0-1.245.12-1.635.585L16.455 27.489c-.465.39-.585.915-.585 1.635s.12 1.245.585 1.635l.734.734 15.074-14.889-.826-.827c-.39-.465-.915-.585-1.635-.585zm12.883 41.797l14.982-14.982-23.989-23.989-15.074 14.889 24.081 24.082zm1.878 1.878c.39.465.915.585 1.635.585s1.245-.12 1.635-.585l11.712-11.712c.465-.39.585-.915.585-1.635s-.12-1.245-.585-1.635l-.464-.464-14.982 14.982.464.464z" fill="#c09853"/>
<path d="M57.635 30.69a.856.856 0 01-.6-1.05c1.129-4.144-1.278-6.718-3.41-8.85l-4.288-4.287v5.195a.855.855 0 11-1.71 0v-7.26a.855.855 0 01.855-.856h7.26a.855.855 0 110 1.71h-5.194l4.287 4.288c2.102 2.102 5.261 5.338 3.85 10.51a.856.856 0 01-1.05.6z" fill="#C09853"/>
</svg>