<svg viewbox="0 0 24 24" fill="none" xmlns="http://www.w3.org/2000/svg"><path d="M10.1 14.492l.4-.08v-2.364c0-.8-.441-1.366-.89-1.942l-.07-.09c-.492-.635-.998-1.363-.998-2.375C8.542 5.948 10.054 4.5 12 4.5c1.946 0 3.458 1.448 3.458 3.14 0 1.013-.506 1.741-.999 2.377l-.069.089c-.449.576-.89 1.142-.89 1.942v2.364l.4.08 5.48 1.112h0l.009.002.111.02v2.034h-.667V18.774a.667.667 0 01-.25.51 1.033 1.033 0 01-.645.216H6.063c-.244 0-.474-.078-.646-.215l-.248.309.248-.31a.667.667 0 01-.25-.51V17.66H4.5v-2.034l.111-.02h0l.01-.002 5.478-1.112zm2.567-.124h.5V12.048c0-.84.458-1.43.945-2.057l.054-.07c.488-.63.959-1.268.959-2.28 0-1.661-1.425-2.915-3.125-2.915S8.875 5.98 8.875 7.641c0 1.012.471 1.65.959 2.28l.054.07c.487.627.945 1.217.945 2.057V14.368h1.834zm-2 .227h-.051l-.05.01-5.333 1.092-.4.082v1.655h14.334V15.78l-.4-.082-5.333-1.092-.05-.01H10.667zM6 17.66h-.5v1.375l.223.136a.602.602 0 00.34.103h11.874a.602.602 0 00.34-.103l.223-.137V17.66H6z" stroke="currentColor"/></svg>