<svg width="96" height="96" viewBox="0 0 96 96" xmlns="http://www.w3.org/2000/svg"><g fill="none" fill-rule="evenodd"><path d="M47.4 67l.1-2.8H16.9c-2.4 0-4.7-1-6.3-2.7A9.3 9.3 0 018 55V17.7c-.9 0-1.7.2-2.5.6-1.2.6-2 1.8-2 3.1V66c0 2 2 3.7 4.6 3.7h39.4l-.1-2.3V67z" fill="#C09853"/><path d="M8.7 16v4.5c-1.3 0-2.2.8-2.2 1.4v44.2c0 .6 1 1.4 2.4 1.4h39.6A23 23 0 0049 72H9c-4 0-7-2.6-7-6V22a6 6 0 014.3-5.6c.8-.3 1.6-.4 2.4-.4zm28.6-9a4 4 0 013.2 1.6l7 9.1h29.8c3.7 0 6.7 2.5 6.7 5.7v20c-1.4-.6-2.8-1-4.3-1.3V23.4c0-.7-1-1.4-2.4-1.4h-30c-1.3 0-2.5-.6-3.3-1.7l-7-9H18.8c-1.3 0-2.4.8-2.4 1.4v42.5c0 .8.7 1.4 1.5 1.4H51c-.6 1.4-1.2 2.9-1.6 4.4H17.8a5.8 5.8 0 01-5.8-5.8V12.7C12 9.6 15 7 18.7 7z" fill="#433E3B" fill-rule="nonzero"/><path d="M69.2 71.4l.3.3.3-.4h-.6zm0 0l.3.3.3-.4h-.6zm0 0l.3.3.3-.4h-.6zm0 0l.3.3.3-.4h-.6zm0 0l.3.3.3-.4h-.6zm0 0l.3.3.3-.4h-.6zm0 0l.3.3.3-.4h-.6zm0 0l.3.3.3-.4h-.6zm0 0l.3.3.3-.4h-.6zm13.5-24.2A22 22 0 0051 67v.4a20.1 20.1 0 00.6 4.6 22 22 0 1031-24.8zm4.6 13.5L70.9 76.4a2.2 2.2 0 01-3 0l-5-4.8-2.3-2.2-1-.9a2 2 0 01-.6-1.3 2 2 0 011.3-2c.8-.4 1.8-.3 2.4.4l6.7 6.3 6.9-6.6 7.9-7.6c.5-.6 1.4-.8 2.1-.6.8.1 1.4.7 1.6 1.5a2 2 0 01-.6 2zm-18 10.7l.2.3.3-.4h-.6zm0 0l.2.3.3-.4h-.6zm0 0l.2.3.3-.4h-.6zm0 0l.2.3.3-.4h-.6zm0 0l.2.3.3-.4h-.6zm0 0l.2.3.3-.4h-.6zm0 0l.2.3.3-.4h-.6zm0 0l.2.3.3-.4h-.6z" fill="#8A9A0E"/></g></svg>