<?xml version="1.0" encoding="UTF-8"?><svg width="96" height="96" viewBox="0 0 96 96" xmlns="http://www.w3.org/2000/svg"><g fill="none" fill-rule="evenodd"><path d="M4.63 8.84h71.13a2.45 2.45 0 012.46 2.43v15.57h-76V11.26c0-1.32 1.08-2.4 2.41-2.42z" fill="#C09853"/><path d="M72.56 7.17h-7.52v-2.9A2.4 2.4 0 0062.66 2c-1.26 0-2.3 1-2.39 2.27v2.9h-39.3v-2.9A2.4 2.4 0 0018.58 2c-1.26 0-2.3 1-2.38 2.27v2.9H9.46A8.54 8.54 0 001 15.78v53.6A8.54 8.54 0 009.46 78h40.48c-.47-1.58-.76-3.2-.87-4.84H9.46c-.99 0-1.93-.39-2.62-1.1a3.76 3.76 0 01-1.07-2.66V29.34h70.47v17.91c1.63.25 3.22.66 4.76 1.24V15.77c0-4.75-3.78-8.6-8.44-8.6zM76 24H6v-8.4c0-.97.39-1.88 1.07-2.56A3.65 3.65 0 019.67 12h6.7v5.97a2.36 2.36 0 002.36 2.19c1.25 0 2.28-.96 2.37-2.2V12h39.04v5.97a2.36 2.36 0 002.36 2.19c1.25 0 2.29-.96 2.37-2.2V12h7.47A3.66 3.66 0 0176 15.62V24z" fill="#433E3B"/><path d="M69.93 76.5l.28.29.3-.3-.58.02zm0 0l.28.29.3-.3-.58.02zm0 0l.28.29.3-.3-.58.02zm0 0l.28.29.3-.3-.58.02zm0 0l.28.29.3-.3-.58.02zm0 0l.28.29.3-.3-.58.02zm0 0l.28.29.3-.3-.58.02zm0 0l.28.29.3-.3-.58.02zm0 0l.28.29.3-.3-.58.02zm13.44-24.12a21.99 21.99 0 00-28.55 8.5 21.31 21.31 0 00-3.1 11.27v.42a20.11 20.11 0 00.57 4.56 22 22 0 1031.13-24.75h-.05zm4.64 13.4L71.64 81.53a2.23 2.23 0 01-3.1 0l-4.93-4.74-2.31-2.22-.94-.9c-.37-.36-.6-.83-.63-1.34-.07-.87.44-1.69 1.27-2.05.83-.36 1.8-.2 2.45.43l6.64 6.38 6.9-6.63 7.93-7.62a2.24 2.24 0 012.15-.63c.78.19 1.39.77 1.59 1.52.2.75-.06 1.55-.65 2.07zM69.93 76.52l.28.28.3-.3-.58.02zm0 0l.28.28.3-.3-.58.02zm0 0l.28.28.3-.3-.58.02zm0 0l.28.28.3-.3-.58.02zm0 0l.28.28.3-.3-.58.02zm0 0l.28.28.3-.3-.58.02zm0 0l.28.28.3-.3-.58.02zm0 0l.28.28.3-.3-.58.02z" fill="#8A9A0E"/></g></svg>