<svg width="24" height="24" viewBox="0 0 24 24" fill="none" xmlns="http://www.w3.org/2000/svg"><path d="M4.44302 13.4119H8.05219C8.58371 13.4119 8.94377 13.1683 9.05522 12.7204L9.88679 9.21619L11.7042 19.3361C11.8671 20.2239 13.3245 20.2161 13.5217 19.3439L15.2191 11.9347L15.3649 12.6419C15.4677 13.1447 15.8192 13.4119 16.3764 13.4119H19.557C20.0799 13.4119 20.5 13.0347 20.5 12.5633C20.5 12.0683 20.0885 11.699 19.557 11.699H16.9251L16.0678 8.16334C15.8621 7.31478 14.4733 7.33049 14.2675 8.18691L12.6301 14.9283L10.8041 4.65909C10.6583 3.79482 9.27811 3.77125 9.07236 4.64338L7.40923 11.699H4.44302C3.92007 11.699 3.5 12.084 3.5 12.5633C3.5 13.0347 3.92007 13.4119 4.44302 13.4119Z" fill="currentColor"/></svg>
