<svg width="24" height="24" viewBox="0 0 24 24" xmlns="http://www.w3.org/2000/svg"><path d="M12 2.167c1.424 0 2.721.573 3.662 1.496a5.032 5.032 0 011.519 3.33l.007.26v2.26c1.422 1.34 2.312 3.22 2.312 5.3a7.261 7.261 0 01-2.2 5.196 7.551 7.551 0 01-5.3 2.158 7.551 7.551 0 01-5.3-2.158 7.261 7.261 0 01-2.2-5.197c0-2.027.842-3.865 2.2-5.197A7.551 7.551 0 0112 7.458c1.392 0 2.686.393 3.807 1.044l.255.155V7.254a3.933 3.933 0 00-1.192-2.815 4.09 4.09 0 00-5.2-.434 4.328 4.328 0 00-1.354 1.524l-.114.231-1.037-.413A5.407 5.407 0 019.05 3.082 5.202 5.202 0 0112 2.167zm0 6.394a6.418 6.418 0 00-4.51 1.828 6.17 6.17 0 00-1.865 4.423 6.17 6.17 0 001.864 4.423A6.418 6.418 0 0012 21.063a6.418 6.418 0 004.51-1.828 6.17 6.17 0 001.865-4.423 6.17 6.17 0 00-1.864-4.423A6.418 6.418 0 0012 8.56zm0 4.944c.369 0 .702.146.943.382.241.237.39.564.39.925 0 .476-.261.884-.65 1.113l-.12.063v2.4h-1.126v-2.4a1.3 1.3 0 01-.77-1.176c0-.361.149-.688.39-.925.241-.236.574-.382.943-.382z" fill-rule="evenodd"/></svg>