<svg width="24" height="24" viewBox="0 0 22 24" xmlns="http://www.w3.org/2000/svg"><path d="M11.68 12.66c.2-.17.5-.17.7 0l2.44 2.18a.52.52 0 01-.35.91.54.54 0 01-.35-.13l-1.57-1.4v5.8a.52.52 0 11-1.04 0v-5.8l-1.57 1.4a.52.52 0 01-.7-.78zm-.33-9.64a6.44 6.44 0 016.87 5.42 5.4 5.4 0 01-.62 10.75h-1.65a.52.52 0 110-1.04h1.65a4.35 4.35 0 00.13-8.7.51.51 0 01-.5-.47 5.4 5.4 0 10-10.7 1.25.53.53 0 01-.54.6 3.66 3.66 0 00-.22 7.32h2.35a.52.52 0 110 1.04H5.77a4.7 4.7 0 01-.35-9.39v-.35a6.44 6.44 0 015.93-6.43z" fill-rule="evenodd"/></svg>