<svg viewBox="0 0 57 57" xmlns="http://www.w3.org/2000/svg"><defs><filter id="a"><feColorMatrix in="SourceGraphic" values="0 0 0 0 0.078431 0 0 0 0 0.137255 0 0 0 0 0.180392 0 0 0 1.000000 0"/></filter></defs><g fill="none" fill-rule="evenodd"><g filter="url(#a)"><path d="M40.396 15.604h4.96v-4.96h-4.96v4.96zm0 9.917h4.96v-4.958h-4.96v4.958zm0 9.916h4.96V30.48h-4.96v4.958zm0 9.917h4.96v-4.958h-4.96v4.958zM18.083 30.48h19.834V10.645H18.083v19.834zm0 14.875h19.834V32.958H18.083v12.396zm-7.437-29.75h4.958v-4.96h-4.958v4.96zm0 9.917h4.958v-4.958h-4.958v4.958zm0 9.916h4.958V30.48h-4.958v4.958zm0 9.917h4.958v-4.958h-4.958v4.958zm34.71-37.187h-34.71a2.48 2.48 0 00-2.48 2.478v34.71a2.48 2.48 0 002.48 2.478h34.71a2.48 2.48 0 002.477-2.479v-34.71a2.479 2.479 0 00-2.478-2.477z" fill="#0A0B09"/></g><circle fill="#DFE8EE" cx="44.333" cy="44.333" r="11.068"/><path d="M44.45 34.526c-5.369 0-9.722 4.353-9.722 9.722 0 5.37 4.353 9.723 9.723 9.723 5.369 0 9.722-4.353 9.722-9.723a9.722 9.722 0 00-9.722-9.722zm-.883 5.034c0-.584.494-1.057 1.104-1.057.61 0 1.105.473 1.105 1.057v5.4c0 .583-.494 1.056-1.105 1.056-.61 0-1.104-.473-1.104-1.057v-5.4zm.884 9.991a1.326 1.326 0 110-2.651 1.326 1.326 0 010 2.651z" fill="#E7B32A"/></g></svg>