<svg width="24" height="24" viewBox="0 0 24 24" xmlns="http://www.w3.org/2000/svg"><g fill="none" fill-rule="evenodd"><path d="M14 8c.751 1.167 1.126 2.333 1.126 3.5 0 1.167-.375 2.333-1.126 3.5" stroke="#ffffff" stroke-width="1.4" stroke-linecap="round"/><path d="M16 6c1.19 1.833 1.786 3.667 1.786 5.5 0 1.833-.596 3.667-1.786 5.5" stroke="#ffffff" stroke-width="1.5" stroke-linecap="round"/><path d="M19 5c1.32 2.167 1.981 4.333 1.981 6.5S20.321 15.833 19 18" stroke="#ffffff" stroke-width="1.6" stroke-linecap="round"/><path d="M11.737 5.37a1 1 0 01.263.676V17.33a1 1 0 01-1.672.74l-3.713-3.373H3a1 1 0 01-1-1v-4a1 1 0 011-1h3.633l3.69-3.388a1 1 0 011.414.06z" fill="#ffffff"/></g></svg>