<svg width="24" height="24"
    xmlns="http://www.w3.org/2000/svg">
    <g fill="none" fill-rule="evenodd">
        <circle fill="#BD2414" cx="12" cy="12" r="12"/>
        <path d="M11.162 5.714c-.767 0-1.397.63-1.397 1.397 0 .953.53 2.136 1.087 3.248-.436 1.364-.93 2.826-1.563 4.06-1.294.507-2.449.885-3.143 1.444a.42.42 0 00-.03.035 1.403 1.403 0 00.995 2.388c.374 0 .735-.14.995-.406a.42.42 0 00.027-.022c.51-.61 1.113-1.717 1.65-2.728 1.237-.487 2.533-.982 3.784-1.28.913.737 2.235 1.223 3.322 1.223.766 0 1.397-.63 1.397-1.397 0-.766-.63-1.397-1.397-1.397-.872 0-2.14.312-3.108.638a10.344 10.344 0 01-2.025-2.637c.37-1.141.803-2.283.803-3.169 0-.766-.63-1.397-1.397-1.397zm0 .838c.313 0 .559.246.559.56 0 .418-.225 1.19-.485 2.02-.347-.807-.633-1.582-.633-2.02 0-.314.245-.56.559-.56zm.24 4.78c.42.668.912 1.29 1.45 1.842-.83.227-1.638.517-2.437.82.386-.87.695-1.773.987-2.662zm5.487 1.785c.313 0 .559.246.559.56a.552.552 0 01-.56.558c-.629 0-1.523-.284-2.238-.681.82-.232 1.716-.437 2.239-.437zM8.552 15.62c-.393.7-.784 1.355-1.057 1.685a.532.532 0 01-.384.144.553.553 0 01-.559-.56.6.6 0 01.149-.388c.327-.253 1.04-.557 1.85-.881z" fill="#FFF" fill-rule="nonzero"/>
    </g>
</svg>
