<?xml version="1.0" encoding="UTF-8"?>
<svg width="20px" height="20px" viewBox="0 0 20 20" version="1.1" xmlns="http://www.w3.org/2000/svg" xmlns:xlink="http://www.w3.org/1999/xlink">
    <title>EA92F1C7-C8C0-4455-B27E-BF3BF1DA29D4@1x</title>
    <defs>
        <rect id="path-1" x="0" y="0" width="1135" height="898" rx="12"></rect>
        <filter x="-3.7%" y="-3.3%" width="107.4%" height="109.4%" filterUnits="objectBoundingBox" id="filter-2">
            <feOffset dx="0" dy="12" in="SourceAlpha" result="shadowOffsetOuter1"></feOffset>
            <feGaussianBlur stdDeviation="12" in="shadowOffsetOuter1" result="shadowBlurOuter1"></feGaussianBlur>
            <feColorMatrix values="0 0 0 0 0.635294118   0 0 0 0 0.764705882   0 0 0 0 0.847058824  0 0 0 0.08 0" type="matrix" in="shadowBlurOuter1"></feColorMatrix>
        </filter>
    </defs>
    <g id="Pre-deposition" stroke="none" stroke-width="1" fill="none" fill-rule="evenodd">
        <g id="3.18.add.requester" transform="translate(-1257.000000, -819.000000)">
            <rect fill="#F2F5F7" x="0" y="0" width="1440" height="1872"></rect>
            <g id="Witness(s)" transform="translate(273.000000, 389.000000)">
                <g id="Background">
                    <use fill="black" fill-opacity="1" filter="url(#filter-2)" xlink:href="#path-1"></use>
                    <use fill="#FFFFFF" fill-rule="evenodd" xlink:href="#path-1"></use>
                </g>
                <g id="Group-2" transform="translate(28.000000, 430.000000)" fill="#14232E" font-family="Merriweather-Regular, Merriweather" font-size="20" font-weight="normal" line-spacing="20">
                    <text id="Section-title">
                        <tspan x="4" y="20">Witness 02</tspan>
                    </text>
                </g>
                <g id="Foundations/Icons/Delete" transform="translate(984.000000, 430.000000)" fill="#BD2414">
                    <path d="M11.7737069,0.833333333 C12.7875821,0.859209521 13.589623,1.70011583 13.5675287,2.71408046 L13.5675287,2.71408046 L13.5675287,3.59123563 L18.308908,3.59123563 C18.5707672,3.59123563 18.783046,3.80351441 18.783046,4.06537356 C18.783046,4.32723271 18.5707672,4.53951149 18.308908,4.53951149 L18.308908,4.53951149 L16.6099138,4.53951149 L16.6099138,17.112069 C16.6055613,18.248069 15.6834222,19.1666667 14.5474138,19.1666667 L14.5474138,19.1666667 L5.90229885,19.1666667 C4.76757587,19.1666667 3.84770115,18.2467919 3.84770115,17.112069 L3.84770115,17.112069 L3.84770115,4.53951149 L2.1408046,4.53951149 C1.87894545,4.53951149 1.66666667,4.32723271 1.66666667,4.06537356 C1.66666667,3.80351441 1.87894545,3.59123563 2.1408046,3.59123563 L2.1408046,3.59123563 L6.87428161,3.59123563 L6.87428161,2.71408046 C6.85659398,1.69880823 7.66090937,0.859215843 8.67600575,0.833333333 L8.67600575,0.833333333 Z M15.6616379,4.61063218 L4.82758611,4.61063218 L4.82758611,17.112069 C4.82734172,17.7109394 5.30367289,18.2012803 5.90229885,18.2183908 L5.90229885,18.2183908 L14.5474138,18.2183908 C15.1597099,18.2183908 15.6572954,17.7243497 15.6616379,17.112069 L15.6616379,17.112069 L15.6616379,4.61063218 Z M6.9454023,6.89439655 C7.20726145,6.89439655 7.41954023,7.10667533 7.41954023,7.36853448 L7.41954023,7.36853448 L7.41954023,15.4604885 C7.41954023,15.5862377 7.36958656,15.7068365 7.28066845,15.7957547 C7.19175033,15.8846728 7.0711515,15.9346264 6.9454023,15.9346264 C6.68354315,15.9346264 6.47126437,15.7223477 6.47126437,15.4604885 L6.47126437,15.4604885 L6.47126437,7.36853448 C6.47126437,7.10667533 6.68354315,6.89439655 6.9454023,6.89439655 Z M10.1774425,6.89439655 C10.4393017,6.89439655 10.6515805,7.10667533 10.6515805,7.36853448 L10.6515805,7.36853448 L10.6515805,15.4604885 C10.6515805,15.5862377 10.6016268,15.7068365 10.5127087,15.7957547 C10.4237906,15.8846728 10.3031917,15.9346264 10.1774425,15.9346264 C9.91558338,15.9346264 9.7033046,15.7223477 9.7033046,15.4604885 L9.7033046,15.4604885 L9.7033046,7.36853448 C9.7033046,7.10667533 9.91558338,6.89439655 10.1774425,6.89439655 Z M13.1803161,6.95791897 C13.3270149,6.87322238 13.5077552,6.87322238 13.654454,6.95791897 C13.8011528,7.04261556 13.891523,7.19914131 13.891523,7.36853448 L13.891523,7.36853448 L13.891523,15.4604885 C13.891523,15.5862377 13.8415693,15.7068365 13.7526512,15.7957547 C13.6637331,15.8846728 13.5431343,15.9346264 13.4173851,15.9346264 C13.1555259,15.9346264 12.9432471,15.7223477 12.9432471,15.4604885 L12.9432471,15.4604885 L12.9432471,7.36853448 C12.9432471,7.19914131 13.0336173,7.04261556 13.1803161,6.95791897 Z M11.7737069,1.7816092 L8.67600575,1.7816092 C8.18459797,1.80718096 7.80462686,2.22233458 7.82255747,2.71408046 L7.82255747,2.71408046 L7.82255747,3.59123563 L12.6271552,3.59123563 L12.6271552,2.71408046 C12.6378693,2.47719205 12.5539202,2.24576996 12.3938196,2.07084515 C12.2337189,1.89592034 12.0106158,1.79185953 11.7737069,1.7816092 L11.7737069,1.7816092 Z" id="Combined-Shape"></path>
                </g>
            </g>
        </g>
    </g>
</svg>