<svg xmlns="http://www.w3.org/2000/svg" viewBox="0 0 24 24"><g fill="none" fill-rule="evenodd"><circle fill="#0F4877" cx="12" cy="12" r="12"/><path d="M12.622 6l.002.02V6l4.998 5v5.526c0 .905-.73 1.64-1.635 1.643H8.635A1.642 1.642 0 017 16.526v-8.89A1.642 1.642 0 018.635 6h3.987zm.002.755H8.635a.88.88 0 00-.88.882v8.889c0 .488.393.884.88.887h7.352c.487-.003.88-.4.88-.887V11h-3.318c-.604 0-.912-.342-.926-1.026l.001-.151V6.755zm.924 7.429c.19 0 .343.17.343.378 0 .182-.117.335-.274.37l-.07.007H9.69c-.19 0-.343-.169-.343-.377 0-.183.118-.335.274-.37l.07-.008h3.858zm-1.385-2.713c.101 0 .183.169.183.377 0 .177-.059.326-.138.367l-.042.011H9.528c-.1 0-.182-.169-.182-.378 0-.178.06-.328.14-.367l.042-.01h2.635zm-.985-2.726c.095 0 .172.169.172.377 0 .18-.057.33-.133.368l-.039.01H9.522c-.095 0-.172-.169-.172-.378 0-.178.057-.328.133-.367l.039-.01h1.656z" fill="#FFF"/></g></svg>