<svg xmlns="http://www.w3.org/2000/svg" viewBox="0 0 24 24"><g fill="none" fill-rule="evenodd"><circle fill="#8A9A0E" cx="12" cy="12" r="12"/><path d="M12.622 6l.002.02V6l4.998 5v5.526c0 .905-.73 1.64-1.635 1.643H8.635A1.642 1.642 0 017 16.526v-8.89A1.642 1.642 0 018.635 6h3.987zm.002.755H8.635a.88.88 0 00-.88.882v8.889c0 .488.393.884.88.887h7.352c.487-.003.88-.4.88-.887V11h-3.318c-.604 0-.912-.342-.926-1.026l.001-.151V6.755zM9.896 12c.096 0 .185.053.231.138.475.886.322.627.626 1.266.14-.336.231-.54.625-1.266a.26.26 0 01.23-.138h.63c.2 0 .327.22.224.395-.308.532-.848 1.438-.982 1.66l-.03.05 1.014 1.71a.263.263 0 01-.227.396h-.63a.263.263 0 01-.231-.138c-.497-.917-.3-.604-.626-1.266-.122.279-.15.388-.625 1.266a.26.26 0 01-.23.138h-.631a.262.262 0 01-.228-.395l1.013-1.71-1.013-1.711A.263.263 0 019.264 12z" fill="#FFF"/></g></svg>