<svg xmlns="http://www.w3.org/2000/svg" viewBox="0 0 24 24"><g fill="none" fill-rule="evenodd"><circle fill="#0B649C" cx="12" cy="12" r="12"/><path d="M16.542 8.78l2.636 3.26c.068.083.108.19.108.295v3.04a.398.398 0 01-.406.387H6.08a.499.499 0 01-.509-.485v-1.323a.47.47 0 01.092-.28l1.773-2.389a.526.526 0 01.692-.125l2.418 1.505a.528.528 0 00.616-.042l4.644-3.912a.52.52 0 01.736.069zm-5.812-1.4c.922 0 1.67.72 1.67 1.607s-.748 1.607-1.67 1.607c-.923 0-1.67-.72-1.67-1.607.004-.887.751-1.607 1.67-1.607z" fill="#FFF" fill-rule="nonzero"/></g></svg>