<svg xmlns="http://www.w3.org/2000/svg" viewBox="0 0 24 24"><g fill="none" fill-rule="evenodd"><circle fill="#BD2414" cx="12" cy="12" r="12"/><path d="M12.622 6l.002.02V6l4.998 5v5.526c0 .905-.73 1.64-1.635 1.643H8.635A1.642 1.642 0 017 16.526v-8.89A1.642 1.642 0 018.635 6h3.987zm.002.755H8.635a.88.88 0 00-.88.882v8.889c0 .488.393.884.88.887h7.352c.487-.003.88-.4.88-.887V11h-3.318c-.604 0-.912-.342-.926-1.026l.001-.151V6.755zM10.542 12l.18.004c.232.012.437.047.614.106.22.072.402.173.546.301.143.128.248.279.316.453s.102.362.102.564c0 .218-.035.418-.105.6-.07.182-.177.338-.321.468-.144.13-.327.231-.548.304a2.51 2.51 0 01-.784.11h-.528v1.461H9V12h1.542zm0 .759h-.528v1.386h.528c.264 0 .454-.063.57-.189.116-.126.174-.302.174-.528a.79.79 0 00-.045-.273.556.556 0 00-.367-.348 1.022 1.022 0 00-.332-.048z" fill="#FFF"/></g></svg>