<?xml version="1.0" encoding="UTF-8"?>
<svg width="24px" height="24px" viewBox="0 0 24 24" version="1.1" xmlns="http://www.w3.org/2000/svg" xmlns:xlink="http://www.w3.org/1999/xlink">
    <title>Group</title>
    <defs>
        <filter id="filter-1">
            <feColorMatrix in="SourceGraphic" type="matrix" values="0 0 0 0 1.000000 0 0 0 0 1.000000 0 0 0 0 1.000000 0 0 0 1.000000 0"></feColorMatrix>
        </filter>
    </defs>
    <g id="💡-Icons" stroke="none" stroke-width="1" fill="none" fill-rule="evenodd">
        <g id="Group">
            <circle id="Oval-Copy" fill="#C09853" cx="12" cy="12" r="12"></circle>
            <g filter="url(#filter-1)" id="Fill-87">
                <g transform="translate(6.000000, 6.000000)">
                    <path d="M9.75009469,2.24985796 L11.2502841,2.24985796 L11.2502841,0.749700145 L9.75009469,0.749700145 L9.75009469,2.24985796 Z M9.75009469,5.24992109 L11.2502841,5.24992109 L11.2502841,3.75001578 L9.75009469,3.75001578 L9.75009469,5.24992109 Z M9.75009469,8.24998422 L11.2502841,8.24998422 L11.2502841,6.7498264 L9.75009469,6.7498264 L9.75009469,8.24998422 Z M9.75009469,11.2500473 L11.2502841,11.2500473 L11.2502841,9.75014204 L9.75009469,9.75014204 L9.75009469,11.2500473 Z M2.99987374,6.7498264 L9.00012626,6.7498264 L9.00012626,0.749700145 L2.99987374,0.749700145 L2.99987374,6.7498264 Z M2.99987374,11.2500473 L9.00012626,11.2500473 L9.00012626,7.50003156 L2.99987374,7.50003156 L2.99987374,11.2500473 Z M0.749968436,2.24985796 L2.24990531,2.24985796 L2.24990531,0.749700145 L0.749968436,0.749700145 L0.749968436,2.24985796 Z M0.749968436,5.24992109 L2.24990531,5.24992109 L2.24990531,3.75001578 L0.749968436,3.75001578 L0.749968436,5.24992109 Z M0.749968436,8.24998422 L2.24990531,8.24998422 L2.24990531,6.7498264 L0.749968436,6.7498264 L0.749968436,8.24998422 Z M0.749968436,11.2500473 L2.24990531,11.2500473 L2.24990531,9.75014204 L0.749968436,9.75014204 L0.749968436,11.2500473 Z M11.2502841,0 L0.749968436,0 C0.335339422,0 0,0.336342403 0,0.749700145 L0,11.2500473 C0,11.6636576 0.335339422,12 0.749968436,12 L11.2502841,12 C11.6646606,12 12,11.6636576 12,11.2500473 L12,0.749700145 C12,0.336342403 11.6646606,0 11.2502841,0 L11.2502841,0 Z" id="Fill-86" fill="#0A0B09"></path>
                </g>
            </g>
        </g>
    </g>
</svg>