<svg viewBox="0 0 24 24" xmlns="http://www.w3.org/2000/svg"><defs><filter id="a"><feColorMatrix in="SourceGraphic" values="0 0 0 0 1.000000 0 0 0 0 1.000000 0 0 0 0 1.000000 0 0 0 1.000000 0"/></filter></defs><g fill="none" fill-rule="evenodd"><circle fill="#C09853" cx="12" cy="12" r="12"/><g filter="url(#a)"><path d="M15.75 8.25h1.5v-1.5h-1.5v1.5zm0 3h1.5v-1.5h-1.5v1.5zm0 3h1.5v-1.5h-1.5v1.5zm0 3h1.5v-1.5h-1.5v1.5zM9 12.75h6v-6H9v6zm0 4.5h6V13.5H9v3.75zm-2.25-9h1.5v-1.5h-1.5v1.5zm0 3h1.5v-1.5h-1.5v1.5zm0 3h1.5v-1.5h-1.5v1.5zm0 3h1.5v-1.5h-1.5v1.5zM17.25 6H6.75a.75.75 0 00-.75.75v10.5c0 .414.335.75.75.75h10.5a.75.75 0 00.75-.75V6.75a.75.75 0 00-.75-.75z" fill="#0A0B09"/></g></g></svg>