<svg width="24" height="24" viewBox="0 0 24 24" xmlns="http://www.w3.org/2000/svg"><path d="M20.436 17.418l-2.218-2.208V9.643a6.312 6.312 0 00-5.661-6.303v-.774a.566.566 0 10-1.132 0v.774a6.322 6.322 0 00-5.747 6.303v5.567l-2.207 2.208a1.632 1.632 0 00-.35 1.764c.246.601.832.993 1.482.99h4.472a3.18 3.18 0 005.756 0h4.472a1.585 1.585 0 001.472-.99c.255-.603.121-1.3-.34-1.764zm-8.483 3.453a2.057 2.057 0 01-1.547-.698H13.5c-.39.444-.955.699-1.547.698zm7.775-2.123a.444.444 0 01-.425.292h-14.7a.462.462 0 01-.434-.292.481.481 0 01.104-.538l2.377-2.406a.557.557 0 00.123-.396V9.643a5.142 5.142 0 1110.275 0v5.765a.557.557 0 00.16.396l2.388 2.406a.472.472 0 01.132.538z" fill="#000" fill-rule="nonzero"/></svg>