<svg width="24" height="24" viewBox="0 0 24 24" xmlns="http://www.w3.org/2000/svg"><path d="M19.037 12.633a1.913 1.913 0 011.396.534c.092.09.174.188.246.294.069.103.128.21.179.322.1.243.148.503.141.764.001.249-.047.496-.141.727-.05.112-.11.22-.18.322a1.85 1.85 0 01-.245.294l-.754.727-.746.736-1.132 1.105-1.301 1.27-1.133 1.103-.433.424a.74.74 0 01-.265.147L12.047 22h-.142a.535.535 0 01-.396-.166.495.495 0 01-.15-.239.584.584 0 010-.285l.131-.525.321-1.076.226-.92a.558.558 0 01.151-.258l5.481-5.373a.497.497 0 01.114-.092c.158-.135.34-.241.537-.313.19-.072.39-.113.595-.12zM16.481 3c1.356.005 2.452 1.079 2.452 2.401v6.137a2.89 2.89 0 00-1.132.249V5.4c0-.712-.59-1.292-1.32-1.297H5.453c-.731.005-1.321.585-1.321 1.297v12.992c0 .342.14.67.387.911.248.242.583.377.934.377h5.188l-.283 1.104H5.453C4.1 20.78 3.005 19.712 3 18.393V5.401C3 4.08 4.097 3.005 5.453 3zm2.556 10.72h-.085a.643.643 0 00-.236.073.51.51 0 00-.207.138l-.689.671-4.717 4.6-.141.47-.264 1.003 1.528-.368.65-.635 3.85-3.754.189-.184.698-.68a.777.777 0 000-1.114.634.634 0 00-.132-.083.835.835 0 00-.444-.138zm-6.215 1.241c.284 0 .515.247.515.552 0 .305-.23.552-.515.552H7.034c-.285 0-.515-.247-.515-.552 0-.305.23-.552.515-.552zm2.432-3.965a.56.56 0 01.566.552.559.559 0 01-.556.552h-8.18a.56.56 0 01-.565-.552.56.56 0 01.566-.552zm.01-3.984a.56.56 0 01.566.552.56.56 0 01-.566.552H9.81a.56.56 0 01-.566-.552.56.56 0 01.566-.552z" fill="#C09853" fill-rule="evenodd"/></svg>