<svg width="24" height="24" viewBox="0 0 24 24" xmlns="http://www.w3.org/2000/svg"><path d="M10.64 14.989a1.2 1.2 0 011.2 1.072l.006.123v3.366a1.2 1.2 0 01-1.07 1.186l-.135.007-5.437-.01a1.2 1.2 0 01-1.197-1.072L4 19.538v-3.356a1.199 1.199 0 011.069-1.186l.134-.007h5.437zm8.894-4.185a1.205 1.205 0 011.194 1.072l.008.135v7.514a1.206 1.206 0 01-1.079 1.202l-.123.007-5.442.009a1.205 1.205 0 01-1.195-1.072l-.007-.136v-7.522a1.205 1.205 0 011.066-1.2l.137-.009h5.441zm-8.888 5.23H5.2a.153.153 0 00-.148.112l-.006.038v3.351c0 .068.044.125.107.145l.05.007 5.442.01a.154.154 0 00.15-.113l.005-.037v-3.36a.154.154 0 00-.106-.145l-.048-.007zm8.885-4.184h-5.437a.159.159 0 00-.153.119l-.005.042v7.526a.159.159 0 00.117.154l.04.005 5.438-.009a.16.16 0 00.15-.11l.009-.05V12.01a.159.159 0 00-.118-.154l-.041-.006zM5.205 4.004l5.44.01a1.205 1.205 0 011.195 1.083l.006.123v7.515a1.205 1.205 0 01-1.08 1.201l-.123.007H5.202a1.204 1.204 0 01-1.195-1.071L4 12.736V5.212a1.205 1.205 0 011.067-1.2l.138-.008zM5.204 5.05l-.04.006a.159.159 0 00-.112.113l-.006.042v7.527a.158.158 0 00.117.153l.04.005h5.438c.07 0 .13-.045.151-.11l.008-.05V5.22a.16.16 0 00-.108-.151l-.05-.009-5.438-.009zm14.323-1.046l.123.005a1.2 1.2 0 011.078 1.066l.008.123v3.37a1.199 1.199 0 01-1.081 1.185l-.122.005h-5.437A1.198 1.198 0 0112.898 8.7l-.008-.136v-3.36a1.198 1.198 0 011.079-1.185l.121-.006 5.437-.009zm.008 1.046l-5.447.01a.153.153 0 00-.144.1l-.008.047v3.354a.152.152 0 00.114.146l.043.005h5.443a.154.154 0 00.145-.102l.009-.046V5.202a.153.153 0 00-.155-.152z" fill="#C09853" fill-rule="evenodd"/></svg>