<?xml version="1.0" encoding="UTF-8"?>
<svg width="10px" height="5px" viewBox="0 0 10 5" version="1.1" xmlns="http://www.w3.org/2000/svg" xmlns:xlink="http://www.w3.org/1999/xlink">
    <title>Foundations/Icons/Dropdown.arrow</title>
    <g id="Pre-deposition" stroke="none" stroke-width="1" fill="none" fill-rule="evenodd">
        <g id="Shape" transform="translate(-7.000000, -10.000000)" fill="#14232E">
            <path d="M15.1309083,10.2272043 L12.6893334,12.5504458 C12.303212,12.9178534 11.696788,12.9178534 11.3106666,12.5504458 L8.86909175,10.2272043 C8.55055112,9.92410206 8.05018383,9.92437456 7.73197354,10.2278236 C7.43268863,10.5132251 7.42143395,10.9872071 7.70683549,11.286492 C7.71501472,11.2950692 7.72339643,11.3034509 7.73197354,11.3116301 L11.309878,14.7235611 C11.6962086,15.0919704 12.3037914,15.0919704 12.690122,14.7235611 L16.2680265,11.3116301 C16.5673114,11.0262285 16.5785661,10.5522465 16.2931645,10.2529616 C16.2849853,10.2443845 16.2766036,10.2360028 16.2680265,10.2278236 C15.9498162,9.92437456 15.4494489,9.92410206 15.1309083,10.2272043 Z"></path>
        </g>
    </g>
</svg>