<svg xmlns="http://www.w3.org/2000/svg" viewBox="0 0 96 96"><g fill="none" fill-rule="evenodd"><path d="M48 3c-20.244.202-36.816 16.16-37.782 36.382A7.345 7.345 0 003 46.77V63.75a7.347 7.347 0 007.26 7.43 7.174 7.174 0 003.99-1.232A33.368 33.368 0 0045.454 93a2.547 2.547 0 000-5.094C29.69 87.65 17.113 74.674 17.35 58.91V52.3v-5.53a7.387 7.387 0 00-2.165-5.561c.041-1.823.071-2.823.397-4.617.228-.774.722-.774 1.004-.817h62.83c.28.043.769.043.97.817.326 1.794.389 2.794.43 4.617a7.26 7.26 0 00-2.335 5.306V57.51a9.722 9.722 0 00-7.09 9.425v1.57a7.005 7.005 0 01-6.877 7.133h-6.877a9.68 9.68 0 00-9.552-9.68h-3.184a7.387 7.387 0 000 14.774h19.613c6.673-.093 12.02-5.553 11.972-12.226v-1.571a4.67 4.67 0 011.995-3.82v.678a7.26 7.26 0 1014.519 0v-17.15a7.26 7.26 0 00-7.217-7.26C84.817 19.16 68.245 3.202 48 3zm-3.099 72.764a2.208 2.208 0 01-2.08-2.377 2.123 2.123 0 012.08-2.208h3.184a4.585 4.585 0 014.458 4.585H44.9zM17.011 30.85A32.943 32.943 0 0148 8.094 32.943 32.943 0 0178.99 30.85H17.01z" fill="#433E3B"/><path d="M88.998 63.623c.031.607-.267 1.2-.829 1.645-.562.446-1.343.71-2.169.732-.826-.022-1.607-.286-2.17-.732-.561-.446-.86-1.038-.828-1.645V46.334C82.97 45.085 84.302 44.047 86 44c1.697.047 3.03 1.085 2.998 2.334v17.289zM12.998 63.623c.031.607-.267 1.2-.829 1.645-.562.446-1.343.71-2.169.732-.826-.022-1.607-.286-2.17-.732-.561-.446-.86-1.038-.828-1.645V46.334C6.97 45.085 8.302 44.047 10 44c1.697.047 3.03 1.085 2.998 2.334v17.289z" fill="#C09853"/></g></svg>