<svg width="210" height="36" xmlns="http://www.w3.org/2000/svg"><g fill="none" fill-rule="evenodd"><path d="M47.819 13.371V8.113h1.853l2.576 5.258h2.984l-2.947-5.683c1.279-.463 2.41-1.611 2.41-3.463C54.694 2.022 53.1.19 50.412.19h-5.17v13.182h2.576zm2.427-7.405H47.82V2.485h2.427c1.13 0 1.872.722 1.872 1.74 0 1.019-.741 1.74-1.872 1.74zm18.845 7.405v-2.295h-6.115V7.873h5.207V5.577h-5.207V2.485h6.115V.189H60.4v13.182h8.691zm8.134 0V5.688l2.539 4.999h1.742l2.52-4.999v7.683h2.576V.19h-2.539l-3.428 7.128L77.188.19h-2.539v13.182h2.576zm19.92.112c1.5 0 2.631-.519 3.558-1.445 1.295-1.293 1.316-2.884 1.316-5.058v-.2c0-2.277.018-3.925-1.316-5.258C99.776.597 98.646.078 97.145.078s-2.65.519-3.577 1.444c-1.334 1.333-1.297 2.981-1.297 5.258 0 2.278-.037 3.925 1.297 5.258.927.926 2.076 1.445 3.577 1.445zm0-2.296c-.704 0-1.297-.278-1.668-.704-.488-.542-.624-1.136-.63-3.52V6.78c0-2.536.13-3.147.63-3.703.37-.425.964-.703 1.668-.703s1.279.278 1.65.703c.5.556.648 1.167.648 3.703 0 2.537-.148 3.148-.649 3.703-.37.426-.945.704-1.65.704zm15.213 2.184V2.485h3.447V.189h-9.47v2.296h3.447v10.886h2.576zm17.27 0v-2.295h-6.116V7.873h5.207V5.577h-5.207V2.485h6.115V.189h-8.691v13.182h8.691zm21.455 0v-2.295h-5.986V.189h-2.575v13.182h8.561zm13.823 0v-2.295h-6.115V7.873h5.207V5.577h-5.207V2.485h6.115V.189h-8.691v13.182h8.691zm9.968.112c1.409 0 2.669-.408 3.725-1.5.927-.963 1.26-2.11 1.26-4.018V6.04h-4.985v2.147h2.428v.5c0 .685-.167 1.278-.593 1.76-.426.462-1.056.74-1.835.74-.704 0-1.278-.26-1.649-.685-.488-.542-.624-1.155-.63-3.54V6.78c0-2.536.13-3.147.63-3.703.37-.425.945-.703 1.65-.703 1.315 0 2.075.685 2.371 1.925h2.595c-.352-2.221-1.909-4.22-4.967-4.22-1.482 0-2.631.518-3.558 1.443-1.334 1.333-1.297 2.981-1.297 5.258 0 2.278-.037 3.925 1.297 5.258.927.926 2.113 1.445 3.558 1.445zm11.692-.112l.797-2.332h4.688l.779 2.332h2.687L190.699.19h-2.02l-4.8 13.182h2.687zm4.8-4.499h-3.28l1.667-4.795 1.613 4.795zm17.38 4.5v-2.296h-5.985V.189h-2.576v13.182h8.562z" fill="#00304E"/><path d="M51.073 32.4v-.526l-1.526-.107v-6.774l1.859.065.354 2.243h.677l-.129-2.877h-6.694l-.182 2.877h.709l.376-2.243 1.848-.065v6.774l-1.397.107v.526h4.105zm4.791 0v-.526l-.741-.097V27.71c.222-.172.48-.322.773-.45.294-.13.57-.194.828-.194.315 0 .551.06.709.177.158.118.265.297.322.537.058.24.086.57.086.993v3.005l-.698.097v.526h2.568v-.526l-.752-.097v-2.994c0-.602-.05-1.08-.15-1.434-.101-.354-.276-.617-.527-.789-.25-.171-.602-.257-1.053-.257-.408 0-.813.093-1.214.279-.401.186-.717.383-.946.59l.043-.912v-2.49l-.236-.161h-.022l-1.751.203v.462l.902.118v7.396l-.644.086v.526h2.503zm7.543.118c.422 0 .838-.079 1.246-.236.408-.158.716-.344.924-.558l-.204-.473c-.172.144-.414.267-.725.37a2.807 2.807 0 01-.898.156c-.58 0-1.028-.216-1.343-.649-.315-.433-.48-1.004-.494-1.712h3.696c.05-.23.075-.562.075-.998-.021-.687-.216-1.215-.585-1.584-.37-.368-.887-.553-1.553-.553-.544 0-1.03.13-1.456.387a2.612 2.612 0 00-.994 1.095c-.236.472-.354 1.02-.354 1.642 0 .945.227 1.7.682 2.265.455.565 1.116.848 1.983.848zm1.095-3.671h-2.578c.036-.709.177-1.213.424-1.514.247-.3.579-.45.994-.45.408 0 .707.134.897.402.19.268.289.635.296 1.1 0 .158-.011.312-.033.462zm7.553 3.553v-.526l-1.064-.107.43-4.82.193-2.083.634 2.03 1.741 5.141h.698l1.795-5.614.451-1.546.226 2.072.483 4.82-.978.107v.526h3.095v-.526l-.935-.118-.86-6.666 1.182-.129v-.537h-2.825l-1.505 4.83-.322 1.364-.355-1.363-1.515-4.83h-2.847v.536l1.171.129-.784 6.677-.913.107v.526h2.804zm11.228.118c.494 0 .958-.122 1.391-.365a2.726 2.726 0 001.048-1.073c.265-.473.397-1.034.397-1.686 0-.93-.227-1.681-.682-2.254-.455-.572-1.134-.859-2.036-.859a2.764 2.764 0 00-2.439 1.45c-.265.472-.398 1.03-.398 1.674 0 .93.228 1.682.683 2.254.454.573 1.133.86 2.036.86zm.064-.612c-.53 0-.92-.232-1.171-.698-.25-.465-.376-1.094-.376-1.889 0-.801.134-1.406.403-1.814.268-.408.65-.612 1.144-.612.537 0 .928.233 1.171.698.244.465.366 1.095.366 1.89 0 .8-.133 1.405-.398 1.813-.265.408-.645.612-1.139.612zm6.328.612c.38 0 .733-.082 1.059-.247.326-.164.589-.368.79-.612v.344c0 .207.039.343.118.408.078.064.21.096.397.096.186 0 .364-.014.532-.043.168-.028.367-.068.596-.118v-.493h-.623V23.78l-.236-.171h-.033l-1.934.193v.461l1.096.13v2.006a3.946 3.946 0 00-.999-.118c-.637 0-1.19.145-1.66.435-.47.29-.829.685-1.08 1.186a3.676 3.676 0 00-.376 1.664c0 .651.106 1.199.317 1.642.211.444.496.773.854.988.359.215.752.322 1.182.322zm.43-.762c-.466 0-.845-.186-1.139-.558-.294-.372-.44-.945-.44-1.718 0-.887.166-1.544.5-1.97.332-.425.778-.638 1.337-.638.236 0 .46.034.671.102.212.068.346.145.403.23v3.93a1.534 1.534 0 01-.548.434 1.69 1.69 0 01-.784.188zm6.822.762c.423 0 .839-.079 1.247-.236.408-.158.716-.344.924-.558l-.204-.473c-.172.144-.414.267-.726.37-.311.105-.61.156-.897.156-.58 0-1.028-.216-1.343-.649-.315-.433-.48-1.004-.494-1.712h3.696c.05-.23.075-.562.075-.998-.021-.687-.216-1.215-.585-1.584-.37-.368-.887-.553-1.553-.553-.544 0-1.03.13-1.456.387a2.612 2.612 0 00-.994 1.095c-.236.472-.354 1.02-.354 1.642 0 .945.227 1.7.682 2.265.455.565 1.116.848 1.982.848zm1.096-3.671h-2.578c.035-.709.177-1.213.424-1.514.247-.3.579-.45.994-.45.408 0 .707.134.897.402.19.268.288.635.296 1.1 0 .158-.011.312-.033.462zm5.673 3.553v-.515l-1.364-.086v-3.865a2.78 2.78 0 011.654-.547c.136 0 .26.016.37.048a.836.836 0 01.243.102v-1.202a1 1 0 00-.355-.054c-.344 0-.663.08-.956.242a2.982 2.982 0 00-.72.531c-.186.193-.315.35-.387.473h-.032l.032-.838v-.193l-.236-.193h-.022l-1.483.193v.58l.774.193v4.54l-.806.065v.526h3.288zm4.373 0v-.526l-.73-.097V27.71c.228-.172.49-.322.783-.45.294-.13.57-.194.828-.194.3 0 .53.06.687.177.158.118.265.297.323.537.057.24.086.57.086.993v3.016l-.666.086v.526h2.546v-.537l-.752-.075v-3.005c0-.602-.05-1.08-.15-1.434-.1-.354-.275-.617-.522-.789-.247-.171-.596-.257-1.047-.257-.387 0-.792.093-1.214.279-.423.186-.763.394-1.021.623l.01-.258v-.45l-.225-.194h-.032l-1.537.193v.58l.774.193v4.508l-.677.097v.526h2.536zm13.451 0l.376-2.437-.655-.096-.634 1.803-2.772.097V25.09l1.063-.129v-.537h-3.083v.537l.87.129v6.677l-.892.107v.526h5.727zm3.954.118c.422 0 .838-.079 1.246-.236.408-.158.716-.344.924-.558l-.204-.473c-.172.144-.414.267-.725.37a2.807 2.807 0 01-.898.156c-.58 0-1.027-.216-1.343-.649-.315-.433-.48-1.004-.494-1.712h3.696c.05-.23.075-.562.075-.998-.021-.687-.216-1.215-.585-1.584-.369-.368-.887-.553-1.553-.553-.544 0-1.03.13-1.456.387a2.612 2.612 0 00-.994 1.095c-.236.472-.354 1.02-.354 1.642 0 .945.227 1.7.682 2.265.455.565 1.116.848 1.983.848zm1.096-3.671h-2.58c.037-.709.178-1.213.425-1.514.247-.3.579-.45.994-.45.408 0 .707.134.897.402.19.268.289.635.296 1.1 0 .158-.011.312-.032.462zm4.93 6.451c.581 0 1.12-.098 1.618-.295.498-.197.894-.465 1.187-.805.294-.34.44-.714.44-1.122 0-.486-.168-.862-.504-1.127-.337-.265-.853-.397-1.547-.397h-1.215c-.444 0-.752-.048-.924-.145-.172-.097-.258-.274-.258-.531 0-.115.033-.233.097-.355.065-.121.147-.232.247-.332.244.064.52.096.828.096.472 0 .897-.09 1.273-.268.376-.179.67-.431.88-.757.212-.325.318-.7.318-1.122 0-.35-.086-.658-.258-.923h1.182v-.944h-.365c-.251 0-.487.05-.71.15-.222.1-.386.204-.494.311-.408-.3-.974-.45-1.697-.45-.43 0-.837.082-1.22.246a2.24 2.24 0 00-.924.709c-.233.307-.35.669-.35 1.084 0 .4.096.748.286 1.041.19.294.463.519.822.676a1.492 1.492 0 00-.591.526c-.15.23-.226.473-.226.73 0 .415.165.716.494.902a1.972 1.972 0 00-.704.601 1.425 1.425 0 00-.295.87c0 .508.206.907.618 1.197.412.29 1.076.434 1.993.434zm.076-5.603c-.444 0-.775-.132-.994-.397-.218-.265-.328-.623-.328-1.074 0-.48.115-.828.344-1.046.23-.219.541-.328.935-.328.423 0 .74.113.951.338.211.226.317.578.317 1.058 0 .966-.408 1.449-1.225 1.449zm.022 4.98c-.58 0-.993-.103-1.236-.31-.244-.208-.365-.512-.365-.913 0-.4.146-.762.44-1.084.165.036.39.053.677.053h1.268c.494 0 .827.074 1 .22.171.147.257.382.257.704 0 .272-.097.51-.29.713a1.808 1.808 0 01-.758.462 3.125 3.125 0 01-.993.156zm5.909-2.157c.394 0 .746-.09 1.058-.268.312-.18.575-.376.79-.59v.354c0 .207.036.341.107.402.072.06.208.091.408.091.165 0 .357-.018.575-.053.219-.036.4-.072.543-.108v-.472h-.634v-3.446c0-.515-.064-.926-.193-1.234a1.248 1.248 0 00-.64-.671c-.297-.14-.7-.21-1.209-.21-.329 0-.659.05-.988.15-.33.101-.62.216-.87.344a3.02 3.02 0 00-.516.312l.269.558c.286-.15.574-.277.864-.381.29-.104.618-.156.984-.156.322 0 .57.045.746.134.176.09.3.231.371.424.072.194.108.458.108.795v.3c-1.032.022-1.884.192-2.558.51-.673.319-1.01.814-1.01 1.487 0 .558.17.986.51 1.283.34.297.769.445 1.285.445zm.462-.73c-.323 0-.579-.091-.769-.274-.19-.182-.284-.467-.284-.853 0-.386.198-.7.596-.94.398-.239.987-.359 1.768-.359v1.846a3.409 3.409 0 01-.667.408c-.243.115-.458.172-.644.172zm6.844.612v-.526l-.914-.086V23.77l-.236-.161h-.022l-1.73.203v.462l.87.118v7.385l-.87.097v.526h2.902zm9.798 0l.311-1.868-.634-.193-.57 1.353-3.03.107V28.6l1.795.032.15.923h.592v-2.469h-.591l-.15.891-1.795.033v-3.027l2.665.064.311 1.041h.613l-.15-1.664h-5.47v.537l.881.129v6.677l-.892.107v.526h5.964zm3.362 0v-.515l-.892-.108 1.032-1.46.29-.472.322.483.978 1.45-.709.107v.515h2.761v-.515l-.623-.097-1.902-2.49 1.784-2.222.645-.13v-.504h-2.267v.505l.784.129-1.02 1.384-.29.462-.302-.462-.978-1.384.753-.13v-.504h-2.73v.505l.602.129 1.816 2.35-1.837 2.351-.72.108v.515h2.503zm7.403 2.598v-.526l-1.118-.118v-1.085l-.032-.901c.122.043.283.079.484.107.2.029.387.043.558.043.624 0 1.168-.147 1.634-.44a2.922 2.922 0 001.074-1.197c.25-.504.376-1.06.376-1.67 0-.665-.107-1.216-.322-1.652-.215-.437-.5-.759-.854-.966a2.266 2.266 0 00-1.166-.312c-.394 0-.75.083-1.07.247a2.813 2.813 0 00-.8.601v-.633l-.225-.193h-.022l-1.526.193v.58l.785.193v7.085l-.774.118v.526h2.998zm-.065-3.038c-.243 0-.467-.034-.671-.102-.204-.068-.331-.145-.382-.23V27.58c.13-.136.312-.26.548-.375.237-.115.491-.172.763-.172.466 0 .847.19 1.145.569.297.379.445.955.445 1.728 0 .88-.17 1.539-.51 1.975-.34.437-.786.655-1.338.655zm6.877.558c.422 0 .838-.079 1.246-.236.408-.158.716-.344.924-.558l-.204-.473c-.172.144-.414.267-.725.37a2.807 2.807 0 01-.898.156c-.58 0-1.028-.216-1.343-.649-.315-.433-.48-1.004-.494-1.712h3.696c.05-.23.075-.562.075-.998-.021-.687-.216-1.215-.585-1.584-.37-.368-.887-.553-1.553-.553-.544 0-1.03.13-1.456.387a2.612 2.612 0 00-.994 1.095c-.236.472-.354 1.02-.354 1.642 0 .945.227 1.7.682 2.265.455.565 1.116.848 1.983.848zm1.095-3.671h-2.578c.036-.709.177-1.213.424-1.514.247-.3.579-.45.994-.45.408 0 .707.134.897.402.19.268.289.635.296 1.1 0 .158-.011.312-.033.462zm5.673 3.553v-.515l-1.364-.086v-3.865a2.78 2.78 0 011.654-.547c.136 0 .26.016.371.048a.836.836 0 01.242.102v-1.202a1 1 0 00-.355-.054c-.344 0-.662.08-.956.242a2.982 2.982 0 00-.72.531c-.186.193-.315.35-.387.473h-.032l.032-.838v-.193l-.236-.193h-.022l-1.482.193v.58l.773.193v4.54l-.806.065v.526h3.288zm3.148-7.031c.25 0 .446-.072.585-.215.14-.143.21-.336.21-.58 0-.2-.057-.364-.172-.493-.115-.129-.294-.193-.537-.193-.244 0-.435.075-.575.225-.14.15-.21.34-.21.569 0 .2.058.365.172.494.115.129.287.193.516.193h.01zm1.536 7.031v-.526l-.86-.086v-5.292l-.246-.193h-.022l-1.665.204v.569l.816.193v4.508l-.87.097v.526h2.847zm3.664.118c.422 0 .838-.079 1.246-.236.408-.158.716-.344.924-.558l-.204-.473c-.172.144-.414.267-.725.37-.312.105-.61.156-.897.156-.58 0-1.028-.216-1.343-.649-.316-.433-.48-1.004-.495-1.712h3.696c.05-.23.076-.562.076-.998-.022-.687-.217-1.215-.586-1.584-.369-.368-.886-.553-1.553-.553-.544 0-1.03.13-1.455.387a2.612 2.612 0 00-.994 1.095c-.237.472-.355 1.02-.355 1.642 0 .945.228 1.7.682 2.265.455.565 1.116.848 1.983.848zm1.096-3.671h-2.579c.036-.709.177-1.213.424-1.514.248-.3.579-.45.994-.45.409 0 .708.134.898.402.19.268.288.635.295 1.1 0 .158-.01.312-.032.462zm4.867 3.553v-.526l-.731-.097V27.71a3.9 3.9 0 01.784-.45c.294-.13.57-.194.828-.194.3 0 .53.06.687.177.158.118.265.297.323.537.057.24.086.57.086.993v3.016l-.667.086v.526h2.547v-.537l-.752-.075v-3.005c0-.602-.05-1.08-.15-1.434-.1-.354-.275-.617-.522-.789-.247-.171-.596-.257-1.047-.257-.387 0-.792.093-1.214.279-.423.186-.763.394-1.021.623l.01-.258v-.45l-.225-.194h-.032l-1.537.193v.58l.774.193v4.508l-.677.097v.526h2.536zm7.467.118c.386 0 .768-.08 1.144-.241.376-.161.66-.342.854-.543l-.204-.429c-.193.129-.424.24-.693.333-.269.093-.553.14-.854.14-.523 0-.948-.22-1.273-.66-.326-.44-.49-1.083-.49-1.928 0-.744.146-1.318.436-1.722.29-.405.686-.607 1.187-.607.502 0 .774.1.817.3l.236 1.096h.698l.043-1.654c-.308-.1-.573-.178-.795-.236a3.218 3.218 0 00-.795-.086c-.637 0-1.183.142-1.638.424a2.72 2.72 0 00-1.032 1.144 3.638 3.638 0 00-.349 1.61c0 .587.102 1.11.306 1.572.204.462.509.825.914 1.09.404.265.9.397 1.488.397zm5.834 0c.422 0 .838-.079 1.246-.236.408-.158.716-.344.924-.558l-.204-.473c-.172.144-.414.267-.725.37a2.807 2.807 0 01-.898.156c-.58 0-1.028-.216-1.343-.649-.315-.433-.48-1.004-.494-1.712h3.696c.05-.23.075-.562.075-.998-.021-.687-.216-1.215-.585-1.584-.37-.368-.887-.553-1.553-.553-.544 0-1.03.13-1.456.387a2.612 2.612 0 00-.994 1.095c-.236.472-.354 1.02-.354 1.642 0 .945.227 1.7.682 2.265.455.565 1.116.848 1.983.848zm1.095-3.671h-2.578c.036-.709.177-1.213.424-1.514.247-.3.579-.45.994-.45.408 0 .707.134.897.402.19.268.289.635.296 1.1 0 .158-.011.312-.033.462z" fill="#00304E" fill-rule="nonzero"/><path stroke="#C07417" stroke-linecap="square" d="M208.691 18.771H45.506"/><g fill-rule="nonzero"><path d="M34.953 3.137V23.76c0 1.697-1.286 3.086-2.934 3.086H20.385l.978 3.085h4.324c.824 0 1.442.669 1.442 1.543 0 .875-.67 1.543-1.442 1.543H9.215c-.824 0-1.442-.668-1.442-1.543 0-.874.67-1.543 1.442-1.543h4.375l.978-3.085H2.934C1.338 26.846 0 25.457 0 23.76V3.137C0 1.44 1.287.051 2.934.051H32.02c1.596 0 2.934 1.389 2.934 3.086zm-3.912 1.029H3.861V22.73h27.18V4.166z" fill="#00304E"/><path d="M12.303 11.006h1.287l.258 7.457h-1.7l.155-7.457zm-1.235 7.714h13.075v.977h.772v.977h.772v.926H9.523v-.977h.773v-.977h.772v-.926zm13.744-9.823l-7.207-3.6-7.206 3.6v.566h14.413v-.566zm-13.024.874h11.634v.978H11.788V9.77zm9.781 1.235h1.287l.206 7.457h-1.699l.206-7.457zm-3.088 0h1.286l.206 7.457h-1.698l.206-7.457zm-3.09 0h1.34l.205 7.457h-1.699l.155-7.457z" fill="#BF7629"/></g></g></svg>