<svg width="24" height="24" viewBox="0 0 24 24" xmlns="http://www.w3.org/2000/svg"><path d="M21.99 7.031v-.447C21.986 5.155 20.886 4 19.53 4H4.451C3.1 4.005 2.005 5.16 2 6.584v10.822C2 18.835 3.096 19.995 4.452 20h15.087C20.899 20 22 18.839 22 17.406V7.041l-.01-.01zM4.453 5.193h15.087c.727.005 1.315.625 1.32 1.39v.06l-9.005 4.075L3.16 6.316c.121-.652.662-1.122 1.292-1.123zm15.087 13.614H4.452c-.73-.005-1.32-.63-1.32-1.4v-9.78l8.486 4.284a.56.56 0 00.245.06.618.618 0 00.227 0l8.769-3.996v9.461c-.015.762-.606 1.372-1.33 1.371h.01z" fill="#14232E" fill-rule="evenodd"/></svg>