<svg width="24" height="24" viewBox="0 0 24 24" xmlns="http://www.w3.org/2000/svg"><path d="M19.045 2.5l.046.003.09.064.119.054a.555.555 0 01.064.091c.007.04.007.08 0 .118v.082c0 .027-.037.082-.037.082v16.89a.327.327 0 01-.063.092.245.245 0 01-.064.072c-.018.055-.082.055-.082.055a.218.218 0 01-.1.055l-4.945 1.481a1.818 1.818 0 01-1.664-.29 1.927 1.927 0 01-.718-1.173H8.209a1.882 1.882 0 01-1.882-1.873v-3.245c.175.065.36.099.546.1.185-.003.37-.033.545-.091v3.236a.782.782 0 00.791.782h3.455V5.994A1.873 1.873 0 0113 4.176l2.136-.637H8.21a.782.782 0 00-.79.782V8.24a1.61 1.61 0 00-1.092 0V4.321A1.882 1.882 0 018.21 2.503H19a.345.345 0 01.09 0zm-.763 1.221l-5 1.5a.8.8 0 00-.564.755v13.909a.8.8 0 001.018.754l4.546-1.363V3.72zm-11.41 5.51a.518.518 0 01.41.181l.136.155 1.527 1.763c.022.025.04.053.055.082a.318.318 0 01.045.073.527.527 0 010 .409.318.318 0 01-.045.073.427.427 0 01-.055.081l-1.527 1.719-.136.154a.527.527 0 01-.773 0 .564.564 0 01-.182-.409c0-.13.049-.257.137-.354l.863-.964H3.545a.545.545 0 110-1.091h3.782l-.863-.973a.527.527 0 01-.137-.354.545.545 0 01.546-.546z" fill="#14232E" fill-rule="evenodd"/></svg>