<svg fill="none" xmlns="http://www.w3.org/2000/svg" viewBox="0 0 121 120"><g clip-path="url(#a)"><path opacity=".2" d="m104.119 39.507.649.953c5.46 8.05 6.2 18.094 1.611 26.044-.589 1.025-1.26 2-2.005 2.918C99 76.058 89.781 79.595 80.741 78.484c-5.316-.653-10.76-2.782-15.836-1.55-6.612 1.604-10.02 8.185-12.695 14.121-2.675 5.944-6.103 12.513-12.727 14.089-4.143.99-8.72-.3-12.569-2.447-10.197-5.672-16.186-17.112-16.568-28.091-.383-10.98 4.223-21.416 10.935-29.925 9.401-11.911 23.48-20.71 39.36-22.342 15.88-1.633 33.36 4.612 43.478 17.168Z" fill="#D8E5EF"/><path d="M32.325 28.027c-5.154 0-9.325 4.183-9.325 9.335v41.957c0 5.152 4.172 9.335 9.325 9.335h53.84c5.154 0 9.325-4.183 9.325-9.335V37.362c0-5.152-4.171-9.335-9.325-9.335h-53.84Z" fill="#fff" stroke="#00304E" stroke-width="5"/><path d="M34.09 39a2.147 2.147 0 0 0 2.145-2.148c0-1.186-.96-2.148-2.145-2.148a2.146 2.146 0 0 0-2.144 2.148c0 1.186.96 2.148 2.144 2.148ZM41.526 39a2.146 2.146 0 0 0 2.145-2.148c0-1.186-.96-2.148-2.145-2.148a2.146 2.146 0 0 0-2.145 2.148c0 1.186.96 2.148 2.145 2.148ZM48.962 39a2.146 2.146 0 0 0 2.145-2.148c0-1.186-.96-2.148-2.145-2.148a2.146 2.146 0 0 0-2.145 2.148c0 1.186.96 2.148 2.145 2.148ZM76.497 72.291H33.462c-.837 0-1.516.83-1.516 1.855 0 1.024.679 1.854 1.516 1.854h43.035c.838 0 1.517-.83 1.517-1.854s-.68-1.855-1.517-1.855ZM73.18 61.398H33.557c-.89 0-1.611.882-1.611 1.97s.721 1.97 1.611 1.97H73.18c.89 0 1.61-.882 1.61-1.97s-.72-1.97-1.61-1.97ZM78.582 50.272h-45.12c-.837 0-1.516.83-1.516 1.854s.679 1.854 1.516 1.854h45.12c.838 0 1.517-.83 1.517-1.854s-.679-1.854-1.517-1.854Z" fill="#00304E"/><path fill="#fff" d="M90.5 18h8v21h-8z"/><path fill-rule="evenodd" clip-rule="evenodd" d="M93.5 14c-8.284 0-15 6.716-15 15 0 8.284 6.716 15 15 15 8.284 0 15-6.716 15-15a15 15 0 0 0-15-15Zm-1.95 7.766c0-.9.763-1.63 1.704-1.63.942 0 1.705.73 1.705 1.63v8.331c0 .9-.763 1.63-1.705 1.63-.94 0-1.704-.73-1.704-1.63v-8.33Zm1.95 15.416a2.045 2.045 0 1 1 0-4.091 2.045 2.045 0 0 1 0 4.09Z" fill="#E7B32A"/><path d="m107.722 79.751-6.635 6.635a.62.62 0 0 0 .875.875l6.635-6.635a.618.618 0 1 0-.875-.875ZM107.073 84.502l-1.914 1.913a.62.62 0 0 0 .875.875l1.914-1.913a.62.62 0 0 0-.875-.875ZM70.004 19.226l6.635-6.635a.619.619 0 1 0-.875-.875l-6.635 6.635a.619.619 0 0 0 .875.875ZM70.653 14.476l1.914-1.914a.619.619 0 0 0-.875-.874L69.778 13.6a.619.619 0 1 0 .875.875ZM15.881 74.055l-5.865 5.865a.547.547 0 1 0 .773.774l5.866-5.865a.547.547 0 1 0-.774-.774ZM15.307 78.255l-1.691 1.691a.547.547 0 1 0 .773.774l1.692-1.692a.547.547 0 1 0-.774-.773Z" fill="#D8E5EF"/><path d="m113.723 69.304-2.497-2.081 2.497-2.082 2.498 2.082-2.498 2.08Z" stroke="#D8E5EF" stroke-width="5.643" stroke-linecap="round" stroke-linejoin="round"/><path d="M10.495 68.055c0 1.15-1.119 2.081-2.5 2.081-1.382 0-2.495-.935-2.495-2.08 0-1.151 1.118-2.082 2.5-2.082s2.495.931 2.495 2.081Z" stroke="#D8E5EF" stroke-width="5.547" stroke-miterlimit="10"/><path d="M55.313 15.734c-2.988 2.623-2.811 8.013-2.811 8.013s5.02 1.133 8.006-1.493c2.987-2.624 2.812-8.01 2.812-8.01s-5.02-1.134-8.007 1.49Z" fill="#F9F9F9"/><path d="M37.757 23.01c-.296 1.105.39 2.25 1.532 2.556 1.143.306 2.309-.342 2.605-1.448.296-1.105-.39-2.25-1.532-2.556-1.142-.306-2.309.342-2.605 1.448ZM14.017 30.884h.044c.261 3.555 3.017 3.61 3.017 3.61s-3.039.056-3.039 4.163c0-4.107-3.039-4.164-3.039-4.164s2.755-.054 3.017-3.609Z" fill="#D8E5EF"/></g><defs><clipPath id="a"><path fill="#fff" transform="translate(.5)" d="M0 0h120v120H0z"/></clipPath></defs></svg>