<svg width="24" height="24" viewBox="0 0 24 24" xmlns="http://www.w3.org/2000/svg"><g fill="none" fill-rule="evenodd"><path d="M4.98 4.744l.312.315.687.687h-.342a1.28 1.28 0 00-1.273 1.148l-.007.13v10.221a1.28 1.28 0 001.149 1.273l.13.006h11.345c.481 0 .9-.265 1.119-.658l.786.787a2.374 2.374 0 01-1.752.962l-.162.005H5.637a2.378 2.378 0 01-2.37-2.187l-.007-.188V7.025a2.385 2.385 0 011.72-2.28zM18.259 15.51l-.007-8.484a1.28 1.28 0 00-1.28-1.279H8.496L7.398 4.65h9.574c1.259 0 2.291.975 2.38 2.212l.005.163V9.5l2.414-1.735a.567.567 0 01.575 0 .54.54 0 01.279.399l.005.085v7.772a.548.548 0 01-.795.49l-.074-.042-2.413-1.699V16.6l-1.09-1.09zm3.284-6.2l-2.185 1.534v2.594l2.185 1.534V9.308zM7.349 7.145l.216.223.889.879H7.419a.558.558 0 00-.56.47l-.007.088v.411a.566.566 0 00.478.56l.09.006h2.585l1.103 1.092.004.004H7.419a1.655 1.655 0 01-1.647-1.498l-.007-.164v-.411c0-.866.663-1.579 1.511-1.656l.073-.004zm5.183 2.637h.317a.567.567 0 00.56-.477l.007-.089v-.411a.557.557 0 00-.567-.557l-1.852-.001-1.105-1.105h2.957a1.664 1.664 0 011.655 1.499l.009.164v.411a1.653 1.653 0 01-1.014 1.533l-.967-.967z" fill="#FFF"/><path d="M20.736 21.236a.53.53 0 01-.767 0l-1.589-1.589-.794-.794-7.478-7.478-3.543-3.506-1.47-1.507-.803-.803-2.128-2.146a.53.53 0 11.749-.749l8.71 8.71 6.574 6.575.859.858 1.661 1.662a.53.53 0 01.019.767z" stroke="#BD2414" stroke-width=".5" fill="#BD2414"/></g></svg>