<?xml version="1.0" encoding="UTF-8"?>
<svg width="24px" height="24px" viewBox="0 0 24 24" version="1.1" xmlns="http://www.w3.org/2000/svg" xmlns:xlink="http://www.w3.org/1999/xlink">
    <title>Foundations/Icons/Camera.on@1x</title>
    <g id="💡-Icons" stroke="none" stroke-width="1" fill="none" fill-rule="evenodd">
        <g id="Group" fill="#FFFFFF" transform="translate(3.000000, 4.000000)">
            <path d="M13.971535,0.65 C15.2856183,0.65 16.3523073,1.71173157 16.3573421,3.0247407 L16.3573421,3.0247407 L16.3573421,5.49995119 L18.7705723,3.76456376 C18.9482313,3.65985327 19.1687977,3.65985327 19.3464567,3.76456376 C19.5241234,3.86023469 19.633462,4.047017 19.6299163,4.24864552 L19.6299163,4.24864552 L19.6299163,12.0213545 C19.6299163,12.324016 19.3842739,12.5693716 19.0813671,12.5693716 C18.9673621,12.5667667 18.8564304,12.5319307 18.7614312,12.4689018 L18.7614312,12.4689018 L16.3482011,10.7700488 L16.3482011,13.2452593 C16.3482011,14.5567924 15.2841314,15.62 13.971535,15.62 L13.971535,15.62 L2.63666607,15.62 C2.00633504,15.62 1.40182072,15.3698048 0.956109375,14.9244546 C0.510398028,14.4791043 0.26,13.8750797 0.26,13.2452593 L0.26,13.2452593 L0.26,3.0247407 C0.265011584,1.71528742 1.32615112,0.655007524 2.63666607,0.65 L2.63666607,0.65 Z M13.971535,1.74603417 L2.63666607,1.74603417 C1.92988338,1.74603417 1.3569228,2.31853058 1.3569228,3.0247407 L1.3569228,3.0247407 L1.3569228,13.2452593 C1.3569228,13.9514694 1.92988338,14.5239658 2.63666607,14.5239658 L2.63666607,14.5239658 L13.980676,14.5239658 C14.6874587,14.5239658 15.2604193,13.9514694 15.2604193,13.2452593 L15.2604193,13.2452593 L15.2512783,3.0247407 C15.2512783,2.31853058 14.6783177,1.74603417 13.971535,1.74603417 L13.971535,1.74603417 Z M18.5420467,5.30814521 L16.3573421,6.84259304 L16.3573421,9.43654057 L18.5420467,10.9709884 L18.5420467,5.30814521 Z M9.84893349,3.14347773 C10.2901652,3.14347773 10.7133252,3.31861435 11.0253232,3.63035954 C11.3373211,3.94210473 11.5126252,4.36492194 11.5126252,4.80579622 L11.5126252,4.80579622 L11.5126252,5.21680903 C11.5150484,5.65842882 11.3405562,6.08266911 11.0280259,6.39494625 C10.7154956,6.7072234 10.2909113,6.88157422 9.84893349,6.87915292 L9.84893349,6.87915292 L4.41916562,6.87915292 C3.97876986,6.87915292 3.55654366,6.70370667 3.24599588,6.39169613 C2.9354481,6.07968559 2.76220727,5.6568413 2.76461511,5.21680903 L2.76461511,5.21680903 L2.76461511,4.80579622 C2.76461511,3.89127817 3.50391992,3.14850255 4.41916562,3.14347773 L4.41916562,3.14347773 Z M9.84893349,4.24864552 L4.41916562,4.24864552 C4.26970285,4.24619696 4.1255148,4.30381387 4.01895863,4.40856646 C3.91240246,4.51331906 3.85242217,4.65643446 3.85242217,4.80579622 L3.85242217,4.80579622 L3.85242217,5.21680903 C3.85242217,5.36699697 3.91213247,5.5110336 4.01841749,5.61723251 C4.1247025,5.72343142 4.26885591,5.78309335 4.41916562,5.78309335 L4.41916562,5.78309335 L9.84893349,5.78309335 C9.99924319,5.78309335 10.1433966,5.72343142 10.2496816,5.61723251 C10.3559666,5.5110336 10.4156769,5.36699697 10.4156769,5.21680903 L10.4156769,5.21680903 L10.4156769,4.80579622 C10.4156769,4.65643446 10.3556967,4.51331906 10.2491405,4.40856646 C10.1425843,4.30381387 9.99839625,4.24619696 9.84893349,4.24864552 L9.84893349,4.24864552 Z" id="Combined-Shape"></path>
        </g>
    </g>
</svg>