<?xml version="1.0" encoding="UTF-8"?>
<svg width="24px" height="24px" viewBox="0 0 24 24" version="1.1" xmlns="http://www.w3.org/2000/svg" xmlns:xlink="http://www.w3.org/1999/xlink">
    <title>Foundations/Icons/Camera.off2@1x</title>
    <g id="💡-Icons" stroke="none" stroke-width="1" fill="none" fill-rule="evenodd">
        <g id="Group" transform="translate(2.000000, 2.000000)">
            <path d="M2.98053918,2.74405224 L3.29173913,3.05883988 L3.979,3.74600019 L3.63666607,3.74617839 C2.9740573,3.74617839 2.42906562,4.24934907 2.36352997,4.89414461 L2.3569228,5.02488492 L2.3569228,15.2454035 C2.3569228,15.9074755 2.86050143,16.4520257 3.50581975,16.5175082 L3.63666607,16.5241101 L14.980676,16.5241101 C15.4620051,16.5241101 15.88127,16.2585975 16.099773,15.866158 L16.8858266,16.6530812 C16.4832216,17.1987809 15.8524954,17.5661404 15.1342562,17.6146656 L14.971535,17.6201442 L3.63666607,17.6201442 C3.00633504,17.6201442 2.40182072,17.369949 1.95610938,16.9245988 C1.55496916,16.5237835 1.31203274,15.9944421 1.26745686,15.4334429 L1.26,15.2454035 L1.26,5.02488492 C1.26414105,3.94289016 1.98936771,3.0310219 2.98053918,2.74405224 Z M16.258,13.5090002 L16.2512783,5.02488492 C16.2512783,4.3186748 15.6783177,3.74617839 14.971535,3.74617839 L6.495,3.74600019 L5.398,2.65000019 L14.971535,2.65014422 C16.2308649,2.65014422 17.2629871,3.62524145 17.3512422,4.86212614 L17.3573421,5.02488492 L17.3573421,7.50009541 L19.7705723,5.76470798 C19.9482313,5.65999749 20.1687977,5.65999749 20.3464567,5.76470798 C20.4987424,5.84671164 20.6008279,5.99565427 20.6246545,6.16350882 L20.6299163,6.24878974 L20.6299163,14.0214987 C20.6299163,14.3241602 20.3842739,14.5695158 20.0813671,14.5695158 C19.9958633,14.5675621 19.9120883,14.5474785 19.835467,14.5109684 L19.7614312,14.469046 L17.3482011,12.770193 L17.348,14.5990002 L16.258,13.5090002 Z M19.5420467,7.30828943 L17.3573421,8.84273727 L17.3573421,11.4366848 L19.5420467,12.9711326 L19.5420467,7.30828943 Z M5.349,5.14600019 L5.56521739,5.36883988 L6.454,6.24800019 L5.41916562,6.24878974 C5.26970285,6.24634119 5.1255148,6.3039581 5.01895863,6.40871069 C4.93371369,6.49251276 4.87827732,6.60086704 4.85951257,6.71732988 L4.85242217,6.80594044 L4.85242217,7.21695325 C4.85242217,7.36714119 4.91213247,7.51117783 5.01841749,7.61737674 C5.1034455,7.70233587 5.21270928,7.75751132 5.32997225,7.77618314 L5.41916562,7.78323757 L8.005,7.78300019 L9.10782609,8.87492683 L9.112,8.87900019 L5.41916562,8.87929715 C4.97876986,8.87929715 4.55654366,8.7038509 4.24599588,8.39184035 C3.97426657,8.11883113 3.8076629,7.76096482 3.77187081,7.38097677 L3.76461511,7.21695325 L3.76461511,6.80594044 C3.76461511,5.93955492 4.4281463,5.22730943 5.27619739,5.15046372 L5.349,5.14600019 Z M10.532,7.78300019 L10.8489335,7.78323757 C10.9992432,7.78323757 11.1433966,7.72357565 11.2496816,7.61737674 C11.3347096,7.53241761 11.3899298,7.42324234 11.4086168,7.30607437 L11.4156769,7.21695325 L11.4156769,6.80594044 C11.4156769,6.65657869 11.3556967,6.51346328 11.2491405,6.40871069 C11.1425843,6.3039581 10.9983963,6.24634119 10.8489335,6.24878974 L8.997,6.24800019 L7.892,5.14300019 L10.8489335,5.14362195 C11.2901652,5.14362195 11.7133252,5.31875858 12.0253232,5.63050377 C12.2983214,5.90328081 12.4666633,6.26109736 12.5044832,6.64164068 L12.5126252,6.80594044 L12.5126252,7.21695325 C12.5150484,7.65857305 12.3405562,8.08281333 12.0280259,8.39509048 C11.8749498,8.54804255 11.694992,8.66790609 11.4992752,8.75011664 L10.532,7.78300019 Z" id="Combined-Shape" fill="#FFFFFF"></path>
            <path d="M18.7356522,19.2356526 C18.6357006,19.3406017 18.4971037,19.4000004 18.3521739,19.4000004 C18.2072441,19.4000004 18.0686472,19.3406017 17.9686957,19.2356526 L16.38,17.6469569 L15.5856522,16.8526091 L8.10782609,9.37478299 L4.56521739,5.86869603 L3.09521739,4.36217429 L2.29173913,3.55869603 L0.164347826,1.41304386 C0.0593986707,1.31309228 2.48689958e-14,1.17449538 2.48689958e-14,1.0295656 C2.48689958e-14,0.88463581 0.0593986707,0.746038912 0.164347826,0.646087335 C0.266052584,0.549225661 0.402069931,0.496733246 0.542477602,0.500000189 C0.682885273,0.503582401 0.816181804,0.562643447 0.913043478,0.664348205 L9.62347826,9.37478299 L16.1973913,15.948696 L17.0556522,16.8069569 L18.7173913,18.468696 C18.8247594,18.5661261 18.8874861,18.7033162 18.8910874,18.8482596 C18.8943882,18.9932031 18.8382617,19.1332231 18.7356522,19.2356526 Z" id="Path" stroke="#BD2414" stroke-width="0.5" fill="#BD2414"></path>
        </g>
    </g>
</svg>