<svg width="24" height="24" viewBox="0 0 24 24" xmlns="http://www.w3.org/2000/svg"><path d="M16.972 4.65a2.385 2.385 0 012.385 2.375V9.5l2.414-1.735a.567.567 0 01.575 0 .54.54 0 01.284.484v7.772a.548.548 0 01-.869.448l-2.413-1.699v2.475a2.376 2.376 0 01-2.376 2.375H5.637a2.378 2.378 0 01-2.377-2.375V7.025A2.385 2.385 0 015.637 4.65zm0 1.096H5.637a1.28 1.28 0 00-1.28 1.279v10.22a1.28 1.28 0 001.28 1.279H16.98a1.28 1.28 0 001.28-1.279l-.01-10.22a1.28 1.28 0 00-1.28-1.279zm4.57 3.562l-2.185 1.535v2.594l2.185 1.534V9.308zm-8.693-2.165a1.664 1.664 0 011.664 1.663v.41a1.653 1.653 0 01-1.664 1.663h-5.43a1.655 1.655 0 01-1.654-1.662v-.411c0-.915.739-1.657 1.654-1.663zm0 1.106h-5.43a.558.558 0 00-.567.557v.41a.566.566 0 00.567.567h5.43a.567.567 0 00.567-.566v-.411a.557.557 0 00-.567-.557z" fill="#FFF" fill-rule="evenodd"/></svg>