<svg width="24" height="24" viewBox="0 0 24 24" xmlns="http://www.w3.org/2000/svg"><path d="M11.727 12.403c.302 0 .546.244.546.545v3.046l.69-.619a.547.547 0 01.728.819l-1.6 1.418a.545.545 0 01-.364.136.564.564 0 01-.363-.136l-1.6-1.418a.547.547 0 01.727-.819l.69.619v-3.046c0-.301.245-.545.546-.545zM5.47 6l13.214.006a4.287 4.287 0 014.304 4.304l-.024 1.882a1.487 1.487 0 01-1.458 1.457l-4.716-.006a1.47 1.47 0 01-1.463-1.463v-1.415l-.007-.076a.426.426 0 00-.417-.348H9.245a.426.426 0 00-.424.424v1.415c0 .388-.154.76-.43 1.033l-.108.097c-.259.215-.586.334-.926.333l-4.716.006a1.487 1.487 0 01-1.482-1.457l.006-1.888A4.287 4.287 0 015.47 6zm13.214 1.04L5.47 7.044a3.322 3.322 0 00-3.252 3.253v1.882c0 .233.19.423.424.424l4.716-.006a.4.4 0 00.418-.418l.006-.892-3.252-.006a.513.513 0 01-.523-.523.522.522 0 01.517-.516H7.88a1.46 1.46 0 011.365-.947h5.657a1.46 1.46 0 011.365.947l3.345.012a.523.523 0 110 1.045l-3.24-.018v.898a.417.417 0 00.417.418l4.716.006a.452.452 0 00.302-.13.426.426 0 00.123-.294l.006-1.888a3.261 3.261 0 00-.96-2.3 3.226 3.226 0 00-2.293-.953z" fill="#14232E" fill-rule="evenodd"/></svg>