<svg width="24" height="24" viewBox="0 0 24 24" xmlns="http://www.w3.org/2000/svg"><path d="M20.067 4c.65.005 1.272.264 1.728.719.456.455.71 1.07.705 1.709V14.8c0 1.33-1.098 2.41-2.452 2.41h-.389v.38c0 1.331-1.097 2.41-2.452 2.41H3.952c-.653 0-1.28-.256-1.74-.712a2.388 2.388 0 01-.712-1.716V9.2c0-1.33 1.098-2.41 2.452-2.41h.389v-.38c0-.643.26-1.258.724-1.71A2.475 2.475 0 016.812 4zM4.34 7.907h-.389c-.352 0-.69.139-.937.385-.247.247-.384.58-.379.927v8.372c0 .346.142.678.392.92.251.244.591.378.943.373h13.255c.727 0 1.316-.58 1.316-1.293v-.382H6.792c-1.354 0-2.451-1.078-2.451-2.409V7.907zm15.707-2.79H6.793c-.353 0-.69.138-.938.385-.247.246-.383.58-.378.926V14.8c0 .346.14.678.392.921.25.243.59.377.943.372h13.255c.726 0 1.316-.579 1.316-1.293V6.41c0-.347-.142-.678-.392-.922a1.328 1.328 0 00-.943-.372zM18.974 11c.29 0 .526.224.526.5s-.235.5-.526.5H8.026a.513.513 0 01-.526-.5c0-.276.235-.5.526-.5zm-2.062-3c.325 0 .588.224.588.5s-.263.5-.588.5H8.088c-.325 0-.588-.224-.588-.5s.263-.5.588-.5z" fill-rule="evenodd"/></svg>