<svg viewBox="0 0 24 24" xmlns="http://www.w3.org/2000/svg"><path d="M4.164 6.19a.548.548 0 01.827.72 7.682 7.682 0 00-1.9 5.035 7.745 7.745 0 002.4 5.564.536.536 0 010 .773.527.527 0 01-.391.163.49.49 0 01-.373-.154 8.764 8.764 0 01-.563-12.1zm14.658-.185l.086.002a.536.536 0 01.365.202 8.836 8.836 0 012 5.818 8.855 8.855 0 01-2.855 6.264.582.582 0 01-.373.145.545.545 0 01-.4-.181.536.536 0 010-.764 7.773 7.773 0 002.537-5.5A7.682 7.682 0 0018.427 6.9a.545.545 0 01.082-.773.536.536 0 01.4-.12zM6.255 7.835a.555.555 0 01.49.893 5.1 5.1 0 00-1.163 3.217 5.264 5.264 0 001.627 3.819.545.545 0 01-.39.927.528.528 0 01-.383-.155 6.282 6.282 0 01-.545-8.5.536.536 0 01.364-.202zM17.01 7.75l.087.005c.144.02.273.099.359.217a6.255 6.255 0 01-.764 8.472.519.519 0 01-.364.146.528.528 0 01-.4-.173.545.545 0 010-.773 5.273 5.273 0 001.728-3.727 5.19 5.19 0 00-1.064-3.29.545.545 0 01.505-.872zm-5.373 1.567a2.655 2.655 0 110 5.31 2.655 2.655 0 010-5.31zm0 1.091a1.564 1.564 0 100 3.127 1.564 1.564 0 000-3.127z" fill-rule="evenodd"/></svg>