<svg width="24" height="24" viewBox="0 0 24 24" fill="none" xmlns="http://www.w3.org/2000/svg"><path fill-rule="evenodd" clip-rule="evenodd" d="M11.171 2.91846C8.52962 2.91846 6.38837 5.05971 6.38837 7.70108V11.4371C6.38837 14.0785 8.52962 16.2198 11.171 16.2198C13.8124 16.2198 15.9536 14.0785 15.9536 11.4372V7.70108C15.9536 5.05971 13.8124 2.91846 11.171 2.91846ZM17.3594 11.2396C17.6396 11.2396 17.8667 11.4618 17.8667 11.736C17.8635 15.1597 15.167 18.0038 11.6782 18.2632V20.0997H14.9246C15.2048 20.0997 15.4319 20.3219 15.4319 20.5961C15.4319 20.8702 15.2048 21.0924 14.9246 21.0924H7.49344C7.21329 21.0924 6.98619 20.8702 6.98619 20.5961C6.98619 20.3219 7.21329 20.0997 7.49344 20.0997H10.6637V18.2632C7.17499 18.0038 4.47851 15.1597 4.47531 11.736C4.47531 11.4618 4.70241 11.2396 4.98256 11.2396C5.26271 11.2396 5.48981 11.4618 5.48981 11.736C5.48981 14.8063 8.03336 17.2952 11.171 17.2952C14.3086 17.2952 16.8522 14.8063 16.8522 11.736C16.8522 11.4618 17.0793 11.2396 17.3594 11.2396Z" fill="currentColor"/></svg>