<?xml version="1.0" encoding="UTF-8"?>
<svg width="24px" height="24px" viewBox="0 0 24 24" version="1.1" xmlns="http://www.w3.org/2000/svg" xmlns:xlink="http://www.w3.org/1999/xlink">
    <title>Foundations/Icons/Mute2@1x</title>
    <g id="💡-Icons" stroke="none" stroke-width="1" fill="none" fill-rule="evenodd">
        <g id="Group" transform="translate(2.027273, 2.000000)">
            <path d="M3.5030303,8.69935929 C3.79590858,8.69935929 4.03333333,8.93168946 4.03333333,9.21828326 C4.03333333,12.4281337 6.69249058,15.0302317 9.97272727,15.0302317 C11.5873282,15.0302317 13.0514532,14.3997918 14.1220492,13.3767496 L14.8612164,14.1148323 C13.7767268,15.1507606 12.3467381,15.8469062 10.7449359,16.0200758 L10.5030303,16.0421334 L10.5030303,17.9621521 L13.8969697,17.9621521 C14.189848,17.9621521 14.4272727,18.1944822 14.4272727,18.481076 C14.4272727,18.7358261 14.2396779,18.9477012 13.9922923,18.9916394 L13.8969697,19 L6.1280303,19 C5.83515203,19 5.59772727,18.7676698 5.59772727,18.481076 C5.59772727,18.226326 5.78532214,18.0144509 6.03270766,17.9705126 L6.1280303,17.9621521 L9.44242424,17.9621521 L9.44242424,16.0421334 C5.79510648,15.7709727 2.97607117,12.7976226 2.97272727,9.21828326 C2.97272727,8.93168946 3.21015203,8.69935929 3.5030303,8.69935929 Z M5.02649584,4.26414243 L5.97272727,5.209 L5.97272727,8.91258889 C5.97272727,11.1217279 7.76358827,12.9125889 9.97272727,12.9125889 C10.9973591,12.9125889 11.9320092,12.5273311 12.6397239,11.8937688 L13.3438268,12.5985617 C12.454845,13.4105784 11.2716263,13.905865 9.97272727,13.905865 C7.21130352,13.905865 4.97272727,11.6672887 4.97272727,8.90586496 L4.97272727,5 C4.97272727,4.75000457 4.99107448,4.50429437 5.02649584,4.26414243 Z M16.4424242,8.69935929 C16.7353025,8.69935929 16.9727273,8.93168946 16.9727273,9.21828326 C16.9716453,10.3764466 16.6757691,11.4711647 16.1524255,12.4314253 L15.3699504,11.6476399 C15.7179978,10.9084461 15.9121212,10.0855482 15.9121212,9.21828326 C15.9121212,8.93168946 16.149546,8.69935929 16.4424242,8.69935929 Z M9.97272727,0 C12.734151,-5.07265313e-16 14.9727273,2.23857625 14.9727273,5 L14.9727273,8.90586496 C14.9727273,9.59756662 14.8322703,10.2564628 14.5783216,10.8555881 L13.8001588,10.0784543 C13.8938506,9.77047811 13.9513892,9.44675558 13.967832,9.11222923 L13.9727273,8.91258889 L13.9727273,4.99327607 C13.9727273,2.78413707 12.1818663,0.993276068 9.97272727,0.993276068 C8.54572753,0.993276068 7.29325644,1.74052204 6.58526241,2.86506557 L5.86733298,2.14515367 C6.77069301,0.848513153 8.27261971,3.12304693e-16 9.97272727,0 Z" id="Combined-Shape" fill="#FFFFFF"></path>
            <path d="M19.2083794,18.7356524 C19.1084279,18.8406015 18.969831,18.9000002 18.8249012,18.9000002 C18.6799714,18.9000002 18.5413745,18.8406015 18.4414229,18.7356524 L16.8527273,17.1469567 L16.0583794,16.3526089 L8.58055336,8.8747828 L5.03794466,5.36869584 L3.56794466,3.8621741 L2.7644664,3.05869584 L0.637075099,0.913043668 C0.532125943,0.813092091 0.472727273,0.674495193 0.472727273,0.529565407 C0.472727273,0.384635621 0.532125943,0.246038723 0.637075099,0.146087146 C0.738779857,0.0492254714 0.874797204,-0.0032669432 1.01520487,7.10542736e-15 C1.15561255,0.00358221149 1.28890908,0.0626432573 1.38577075,0.164348016 L10.0962055,8.8747828 L16.6701186,15.4486958 L17.5283794,16.3069567 L19.1901186,17.9686958 C19.2974867,18.0661259 19.3602134,18.203316 19.3638146,18.3482595 C19.3671154,18.4932029 19.310989,18.6332229 19.2083794,18.7356524 Z" id="Path" stroke="#BD2414" stroke-width="0.5" fill="#BD2414"></path>
        </g>
    </g>
</svg>