<svg width="24" height="24" viewBox="0 0 24 24" xmlns="http://www.w3.org/2000/svg"><g fill="none" fill-rule="evenodd"><path d="M5.53 10.7c.293 0 .53.232.53.518 0 3.21 2.66 5.812 5.94 5.812 1.615 0 3.079-.63 4.15-1.653l.738.738a7.042 7.042 0 01-4.116 1.905l-.242.022v1.92h3.394c.293 0 .53.232.53.52a.522.522 0 01-.434.51l-.096.008H8.155a.525.525 0 01-.53-.519c0-.255.188-.467.435-.51l.095-.009h3.315v-1.92c-3.648-.271-6.467-3.244-6.47-6.824 0-.286.237-.519.53-.519zm1.524-4.436L8 7.21v3.704a4 4 0 006.667 2.98l.704.706A5 5 0 017 10.906V7c0-.25.018-.496.054-.736zM18.47 10.7c.293 0 .53.233.53.52a6.708 6.708 0 01-.82 3.212l-.783-.783c.348-.74.542-1.562.542-2.43 0-.286.238-.519.53-.519zM12 2a5 5 0 015 5v3.906c0 .692-.14 1.35-.394 1.95l-.779-.778a3.99 3.99 0 00.168-.966l.005-.2V6.994a4 4 0 00-7.387-2.128l-.718-.72A4.994 4.994 0 0112 2z" fill="#FFF"/><path d="M21.236 20.736a.53.53 0 01-.767 0l-1.589-1.589-.794-.794-7.478-7.478-3.543-3.506-1.47-1.507-.803-.803-2.128-2.146a.53.53 0 11.749-.749l8.71 8.71 6.574 6.575.859.858 1.661 1.662a.53.53 0 01.019.767z" stroke="#FFF" stroke-width=".1" fill="#FFF"/></g></svg>