<svg width="24" height="24" viewBox="0 0 24 24" fill="none" xmlns="http://www.w3.org/2000/svg">
<path fill-rule="evenodd" clip-rule="evenodd" d="M12.9948 14.414C12.9982 14.3733 13 14.3321 13 14.2903C13 14.2903 13 14.2903 13 14.2903V4.20968C13 3.54159 12.5522 3 12 3C11.4477 3 11 3.54159 11 4.20968L11 4.2375V5.84267V8.58811V10.1999V12.7812V14.2903C11 14.2956 11 14.3008 11 14.306C11.0004 14.3446 11.0023 14.3829 11.0057 14.4206C11.0594 15.0274 11.4841 15.5 12 15.5C12.5158 15.5 12.9404 15.0275 12.9942 14.4208C12.9944 14.4186 12.9946 14.4163 12.9948 14.414ZM12 17C11.4477 17 11 17.4477 11 18C11 18.5523 11.4477 19 12 19C12.5522 19 13 18.5523 13 18C13 17.4477 12.5522 17 12 17ZM9.27119 15.4431C9.50971 15.1995 9.77572 14.9913 10.0616 14.8215C10.0208 14.6446 9.99995 14.4654 9.99995 14.2903V13.0731C9.30391 13.3516 8.66521 13.775 8.12794 14.3237C7.81884 14.6394 7.82419 15.1459 8.13989 15.4551C8.45559 15.7642 8.96209 15.7588 9.27119 15.4431ZM14.7279 15.4431C14.4896 15.1997 14.2238 14.9917 13.9382 14.8219C13.9791 14.6449 14 14.4656 14 14.2903V13.0734C14.6957 13.3519 15.3341 13.7752 15.8711 14.3237C16.1802 14.6394 16.1749 15.1459 15.8592 15.4551C15.5435 15.7642 15.037 15.7588 14.7279 15.4431ZM17.4279 12.4314C16.4419 11.4243 15.2553 10.7483 14 10.4032V8.75448C15.6756 9.12961 17.2691 9.98213 18.5712 11.312C18.8803 11.6277 18.8749 12.1343 18.5592 12.4433C18.2435 12.7524 17.737 12.7471 17.4279 12.4314ZM20.4284 9.36684C18.6108 7.51075 16.3536 6.37907 14 5.97177V4.35079C16.7713 4.77107 19.4393 6.06995 21.5715 8.24741C21.8807 8.56309 21.8754 9.06959 21.5597 9.37872C21.244 9.68784 20.7375 9.68252 20.4284 9.36684ZM2.42831 8.24746C4.56039 6.06979 7.22844 4.77087 9.99995 4.3507V5.97167C7.64616 6.37888 5.38893 7.51059 3.57159 9.3668C3.26249 9.6825 2.75599 9.68786 2.44028 9.37876C2.12457 9.06967 2.11922 8.56316 2.42831 8.24746ZM5.42867 11.3121C6.73062 9.98198 8.32416 9.1294 9.99995 8.75435V10.4031C8.74452 10.7481 7.5579 11.4241 6.57208 12.4313C6.26303 12.7471 5.75653 12.7525 5.44078 12.4434C5.12503 12.1344 5.11961 11.6279 5.42867 11.3121Z" fill="white"/>
</svg>
