<svg xmlns="http://www.w3.org/2000/svg" xmlns:bx="https://boxy-svg.com" viewBox="0 0 16 9"><path d="M0 0h16v9H0z" fill="none"/><g bx:origin="0.602 -3.337" fill="#032a43"><path d="M8 4.452c.485 0 .878-.477.878-1.066 0-.589-.13-1.066-.878-1.066-.749 0-.878.477-.878 1.066 0 .589.393 1.066.878 1.066ZM6.342 6.08c0-.035 0-.01 0 0ZM9.658 6.109c0-.01 0-.069 0 0ZM9.656 6.037c-.016-1.025-.15-1.318-1.175-1.503 0 0-.145.184-.481.184-.336 0-.48-.184-.48-.184-1.015.183-1.157.471-1.176 1.47a34.15 34.15 0 0 1-.002.184S6.586 6.68 8 6.68s1.658-.492 1.658-.492a39.837 39.837 0 0 1-.002-.15Z"/></g></svg>