<svg width="24" height="24" viewBox="0 0 24 24" xmlns="http://www.w3.org/2000/svg"><g transform="translate(3 4)" fill-rule="evenodd"><path fill="currentColor" d="M2.518 1.097a.391.391 0 01.273.12l13.129 13.13a.391.391 0 01.013.565.39.39 0 01-.565 0l-1.172-1.171-2.181-2.181-.127.115a5.195 5.195 0 01-2.804 1.23l-.222.021v1.416h2.502c.216 0 .391.171.391.382 0 .185-.134.34-.312.375l-.079.008H5.636a.387.387 0 01-.392-.383c0-.184.135-.339.313-.374l.079-.008H8.08v-1.416c-2.69-.2-4.769-2.392-4.771-5.032 0-.211.175-.382.39-.382.217 0 .392.17.392.382 0 2.367 1.96 4.286 4.38 4.286a4.416 4.416 0 003-1.164l-.576-.576-.107.092a3.687 3.687 0 01-6.004-2.868v-2.88c0-.143.008-.283.023-.421L4.4 3.945l-.592-.593-1.57-1.582a.39.39 0 01.28-.673zM13.24 7.512c.216 0 .391.17.391.382 0 .854-.219 1.662-.605 2.37l-.577-.577c.257-.546.4-1.153.4-1.793 0-.211.175-.382.391-.382zm-4.77-6.415a3.687 3.687 0 013.687 3.687v2.88c0 .51-.104.996-.291 1.438L5.443 2.679A3.683 3.683 0 018.47 1.097z"/></g></svg>