<?xml version="1.0" encoding="UTF-8"?>
<svg width="24px" height="24px" viewBox="0 0 24 24" version="1.1" xmlns="http://www.w3.org/2000/svg" xmlns:xlink="http://www.w3.org/1999/xlink">
    <title>Foundations/Icons/Real.time@1x</title>
    <g id="💡-Icons" stroke="none" stroke-width="1" fill="none" fill-rule="evenodd">
        <g id="Combined-Shape-2" fill="#14232E" transform="translate(2.048741, 2.000000)">
            <path d="M9.58762293,-2.48689958e-14 C13.6885017,0.00569470947 17.336534,2.60616538 18.6793514,6.4809661 C20.0221689,10.3557668 18.765566,14.6559454 15.5476104,17.1979921 C12.3296549,19.7400388 7.85538683,19.9670021 4.39671384,17.7636364 L4.39671384,17.7636364 L1.05125929,18.8727273 L0.87853202,18.8727273 C0.73688292,18.8775292 0.599264878,18.8251032 0.496713838,18.7272727 C0.352388907,18.5855833 0.296648569,18.3765571 0.351259293,18.1818182 L0.351259293,18.1818182 L1.40580475,14.6363636 C-0.401257814,11.6704625 -0.470784095,7.96116858 1.22386366,4.92963203 C2.91851142,1.89809548 6.11460691,0.0143044523 9.58762293,-2.48689958e-14 Z M13.6903771,2.10304284 C10.2406188,0.236997115 5.96379738,0.955947528 3.31379105,3.84738754 C0.663784717,6.73882755 0.319523733,11.0619718 2.47853202,14.3363636 L2.47853202,14.3363636 L2.47970788,14.3863636 L2.47970788,14.3863636 L2.47853202,14.4363636 L2.47853202,14.6272727 C2.48267344,14.6665578 2.48267344,14.7061695 2.47853202,14.7454545 L2.47853202,14.7454545 L1.68762293,17.5181818 L4.29671384,16.6545455 L4.46944111,16.6545455 C4.50262312,16.6500536 4.5362591,16.6500536 4.56944111,16.6545455 C4.59920051,16.6464279 4.6305908,16.6464279 4.6603502,16.6545455 C4.69951776,16.6618163 4.73669883,16.6773085 4.76944111,16.7 L4.76944111,16.7 L5.05675173,16.8877942 C6.4131168,17.7358153 7.98335087,18.1855961 9.58762293,18.1818814 C13.5097058,18.1968145 16.9395689,15.5427364 17.9092866,11.7423934 C18.8790043,7.9420505 17.1401354,3.96908857 13.6903771,2.10304284 Z M13.5876229,8.62727273 C14.0897,8.62727273 14.4967138,9.03428659 14.4967138,9.53636364 C14.4967138,10.0384407 14.0897,10.4454545 13.5876229,10.4454545 C13.0855459,10.4454545 12.678532,10.0384407 12.678532,9.53636364 C12.678532,9.03428659 13.0855459,8.62727273 13.5876229,8.62727273 Z M9.84216838,8.62727273 C10.3442454,8.62727273 10.7512593,9.03428659 10.7512593,9.53636364 C10.7512593,10.0384407 10.3442454,10.4454545 9.84216838,10.4454545 C9.34009134,10.4454545 8.93307747,10.0384407 8.93307747,9.53636364 C8.93307747,9.03428659 9.34009134,8.62727273 9.84216838,8.62727273 Z M6.08762293,8.62727273 C6.58969997,8.62727273 6.99671384,9.03428659 6.99671384,9.53636364 C6.99671384,10.0384407 6.58969997,10.4454545 6.08762293,10.4454545 C5.58554588,10.4454545 5.17853202,10.0384407 5.17853202,9.53636364 C5.17853202,9.03428659 5.58554588,8.62727273 6.08762293,8.62727273 Z" id="Combined-Shape"></path>
        </g>
    </g>
</svg>