<svg width="24" height="24" viewBox="0 0 24 24" xmlns="http://www.w3.org/2000/svg"><path d="M11.636 2a9.636 9.636 0 11-5.19 17.764L3.1 20.873h-.173a.527.527 0 01-.382-.146.555.555 0 01-.145-.545l1.055-3.546A9.627 9.627 0 0111.636 2zm4.103 2.103A8.555 8.555 0 004.527 16.336l.001.05v.241a.564.564 0 010 .118l-.792 2.773 2.61-.863h.172a.373.373 0 01.1 0 .173.173 0 01.091 0c.04.007.076.022.11.045l.286.188a8.51 8.51 0 004.531 1.294A8.555 8.555 0 0015.74 4.103zm-.103 6.524a.91.91 0 110 1.818.91.91 0 010-1.818zm-3.745 0a.91.91 0 110 1.818.91.91 0 010-1.818zm-3.755 0a.91.91 0 110 1.818.91.91 0 010-1.818z" fill="#14232E" fill-rule="evenodd"/></svg>