<svg xmlns="http://www.w3.org/2000/svg" width="24" height="24" viewBox="0 0 24 24" fill="none"><path d="M11.04 22h1.92c.664 0 1.158-.4 1.32-1.055l.417-1.833.456-.162 1.586.988c.57.37 1.206.285 1.68-.19l1.33-1.33c.485-.475.56-1.112.2-1.682l-.997-1.586.161-.447 1.833-.418C21.6 14.123 22 13.63 22 12.965v-1.891c0-.665-.399-1.16-1.054-1.321l-1.814-.437-.18-.447 1.006-1.586c.361-.57.285-1.197-.2-1.682l-1.329-1.34c-.475-.465-1.101-.55-1.68-.19l-1.587.988-.465-.17-.418-1.834C14.118 2.39 13.624 2 12.96 2h-1.918c-.674 0-1.159.39-1.32 1.055l-.418 1.833-.475.171-1.586-.988c-.58-.36-1.206-.275-1.671.19l-1.34 1.34c-.474.485-.56 1.112-.19 1.682l.998 1.586-.18.447-1.805.437C2.39 9.914 2 10.409 2 11.073v1.891c0 .665.399 1.16 1.054 1.321l1.823.418.162.447-.997 1.586c-.361.57-.285 1.207.2 1.682l1.329 1.33c.475.475 1.11.56 1.68.19l1.587-.988.465.162.418 1.833c.161.656.646 1.055 1.32 1.055zm.124-1.15c-.228 0-.351-.104-.39-.313l-.55-2.309a6.377 6.377 0 01-1.405-.56l-2.014 1.254c-.18.114-.351.095-.522-.067l-1.15-1.159c-.16-.162-.18-.323-.056-.513l1.244-2.014c-.18-.37-.408-.875-.541-1.397l-2.318-.542c-.208-.038-.322-.161-.322-.39v-1.652c0-.228.104-.352.322-.4l2.308-.541c.143-.542.38-1.055.541-1.406L5.067 6.836c-.123-.2-.114-.36.048-.522l1.159-1.15c.17-.162.332-.18.531-.067L8.8 6.333c.389-.2.92-.409 1.434-.561l.54-2.309c.039-.209.162-.313.39-.313h1.672c.228 0 .351.095.39.313l.55 2.328c.532.133 1.007.352 1.405.551l2.004-1.245c.2-.114.361-.095.532.067l1.159 1.15c.161.161.17.323.047.522L17.68 8.841c.171.351.408.855.55 1.406l2.309.542c.218.047.313.17.313.399v1.653c0 .228-.105.351-.313.39l-2.318.541a6.685 6.685 0 01-.55 1.397l1.244 2.014c.123.19.104.351-.048.513l-1.159 1.16c-.17.16-.341.18-.522.066l-2.013-1.255c-.38.219-.864.418-1.396.561l-.55 2.309c-.039.218-.162.313-.39.313h-1.672zM12 15.634c1.994 0 3.628-1.643 3.628-3.639 0-1.976-1.634-3.61-3.628-3.61-1.985 0-3.628 1.634-3.628 3.61 0 1.996 1.643 3.64 3.628 3.64zm0-1.14c-1.358 0-2.488-1.13-2.488-2.499 0-1.349 1.13-2.48 2.488-2.48 1.348 0 2.479 1.131 2.479 2.48 0 1.359-1.13 2.5-2.479 2.5z" fill-rule="evenodd"/></svg>