<svg width="24" height="24" viewBox="0 0 24 24" xmlns="http://www.w3.org/2000/svg"><path d="M20.878 15.765l-3.339-3.33a1.443 1.443 0 00-1.035-.426 1.443 1.443 0 00-1.034.426l-1 1a.426.426 0 01-.6 0l-4-4a.426.426 0 010-.6l1-1a1.47 1.47 0 000-2.07L7.54 2.426a1.487 1.487 0 00-2.062 0L4.13 3.74a4.287 4.287 0 000 6.087l9.34 9.348a4.287 4.287 0 006.087 0l1.339-1.33a1.487 1.487 0 00-.018-2.079zm-.739 1.34l-1.33 1.33a3.322 3.322 0 01-4.6 0L4.86 9.095A3.226 3.226 0 013.913 6.8a3.261 3.261 0 01.948-2.304L6.2 3.166a.426.426 0 01.296-.123.452.452 0 01.304.122l3.33 3.34a.417.417 0 010 .59l-.634.635-2.279-2.304a.523.523 0 10-.739.74l2.357 2.373a1.46 1.46 0 00.295 1.635l4 4a1.46 1.46 0 001.635.296l2.374 2.373a.522.522 0 00.888-.37.513.513 0 00-.157-.369L15.574 13.8l.635-.626a.4.4 0 01.591 0l3.34 3.33a.426.426 0 010 .6z" fill="#14232E" fill-rule="evenodd"/></svg>