<svg width="24" height="24" viewBox="0 0 24 24" xmlns="http://www.w3.org/2000/svg"><path d="M19.557 4C20.909 4.01 22 5.096 22 6.432v11.136c0 .647-.26 1.267-.725 1.723a2.478 2.478 0 01-1.747.709H4.434C3.085 19.985 2 18.9 2 17.568V6.432C2 5.089 3.102 4 4.462 4h15.095zm-.029 1.118H4.462c-.734 0-1.33.588-1.33 1.314v11.136c0 .726.596 1.314 1.33 1.314h15.095a1.331 1.331 0 001.31-1.314V6.432a1.332 1.332 0 00-1.339-1.314zM18.458 12c.3 0 .542.224.542.5s-.243.5-.543.5h-5.914c-.3 0-.543-.224-.543-.5s.243-.5.543-.5h5.914zM8.16 8C9.176 8 10 8.888 10 9.983v1.024a2.066 2.066 0 01-.536 1.409A1.775 1.775 0 018.161 13H6.839c-.489 0-.958-.21-1.303-.584A2.066 2.066 0 015 11.007V9.983C5 8.888 5.824 8 6.84 8h1.32zm0 1.117H6.839c-.443 0-.803.388-.803.866v1.024c0 .48.358.87.803.876h1.322c.214 0 .42-.093.57-.257a.902.902 0 00.233-.619V9.983c0-.478-.36-.866-.803-.866zM16.387 9c.338 0 .613.224.613.5s-.275.5-.613.5h-3.774c-.338 0-.613-.224-.613-.5s.275-.5.613-.5h3.774z" fill="#14232E" fill-rule="evenodd"/></svg>