<svg width="24" height="24" viewBox="0 0 24 24" xmlns="http://www.w3.org/2000/svg"><path d="M19.727 9.79A8.182 8.182 0 0011.637 2a8.182 8.182 0 00-8.092 7.79c-.861.016-1.55.721-1.545 1.583v3.636A1.573 1.573 0 003.555 16.6c.304-.001.602-.093.854-.264a7.145 7.145 0 006.682 4.937.545.545 0 000-1.091 6.118 6.118 0 01-6.018-6.21v-2.6a1.582 1.582 0 00-.464-1.19c.009-.39.048-.78.118-1.164.06.01.122.01.182 0h13.455c.06.01.121.01.181 0 .07.384.11.773.119 1.164a1.555 1.555 0 00-.5 1.136v2.355a2.082 2.082 0 00-1.519 2.018v.336a1.5 1.5 0 01-1.472 1.528H13.7a2.073 2.073 0 00-2.045-2.073h-.682a1.582 1.582 0 100 3.163h4.2a2.6 2.6 0 002.563-2.618v-.336a1 1 0 01.428-.818v.145a1.555 1.555 0 103.109 0v-3.673c0-.855-.69-1.55-1.546-1.554zm-8.754 7.792a.473.473 0 01-.446-.51.455.455 0 01.446-.472h.682c.531.015.954.45.954.982h-1.636zm-6.955-2.573a.482.482 0 01-.463.5.482.482 0 01-.464-.5v-3.636a.482.482 0 01.464-.491c.262.01.468.228.463.49v3.637zM5 7.964a7.055 7.055 0 016.636-4.873 7.055 7.055 0 016.637 4.873H5zm15.182 7.081a.464.464 0 01-.91 0v-3.7a.464.464 0 11.91 0v3.7z" fill="#14232E" fill-rule="evenodd"/></svg>