<?xml version="1.0" encoding="UTF-8"?>
<svg width="24px" height="24px" viewBox="0 0 24 24" version="1.1" xmlns="http://www.w3.org/2000/svg" xmlns:xlink="http://www.w3.org/1999/xlink">
    <title>Foundations/Icons/Unmute@1x</title>
    <g id="💡-Icons" stroke="none" stroke-width="1" fill="none" fill-rule="evenodd">
        <g id="Group" fill="#FFFFFF" transform="translate(5.000000, 2.000000)">
            <path d="M13.469697,8.69935929 C13.7625752,8.69935929 14,8.93168946 14,9.21828326 C13.9966561,12.7976226 11.1776208,15.7709727 7.53030303,16.0421334 L7.53030303,16.0421334 L7.53030303,17.9621521 L10.9242424,17.9621521 C11.2171207,17.9621521 11.4545455,18.1944822 11.4545455,18.481076 C11.4545455,18.7676698 11.2171207,19 10.9242424,19 L10.9242424,19 L3.15530303,19 C2.86242475,19 2.625,18.7676698 2.625,18.481076 C2.625,18.1944822 2.86242475,17.9621521 3.15530303,17.9621521 L3.15530303,17.9621521 L6.46969697,17.9621521 L6.46969697,16.0421334 C2.82237921,15.7709727 0.00334390053,12.7976226 0,9.21828326 C0,8.93168946 0.237424754,8.69935929 0.53030303,8.69935929 C0.823181307,8.69935929 1.06060606,8.93168946 1.06060606,9.21828326 C1.06060606,12.4281337 3.7197633,15.0302317 7,15.0302317 C10.2802367,15.0302317 12.9393939,12.4281337 12.9393939,9.21828326 C12.9393939,8.93168946 13.1768187,8.69935929 13.469697,8.69935929 Z M7,0 C9.76142375,-5.07265313e-16 12,2.23857625 12,5 L12,8.90586496 C12,11.6672887 9.76142375,13.905865 7,13.905865 C4.23857625,13.905865 2,11.6672887 2,8.90586496 L2,5 C2,2.23857625 4.23857625,5.07265313e-16 7,0 Z M7,0.993276068 C4.85780461,0.993276068 3.10892112,2.67724454 3.00489531,4.79363573 L3,4.99327607 L3,8.91258889 C3,11.1217279 4.790861,12.9125889 7,12.9125889 C9.14219539,12.9125889 10.8910789,11.2286204 10.9951047,9.11222923 L11,8.91258889 L11,4.99327607 C11,2.78413707 9.209139,0.993276068 7,0.993276068 Z" id="Combined-Shape"></path>
        </g>
    </g>
</svg>