<svg width="24" height="24" viewBox="0 0 24 24" xmlns="http://www.w3.org/2000/svg"><path d="M18.47 10.7c.293 0 .53.232.53.518-.003 3.58-2.822 6.553-6.47 6.824v1.92h3.394c.293 0 .53.232.53.52a.525.525 0 01-.53.518H8.155a.525.525 0 01-.53-.519c0-.287.237-.519.53-.519h3.315v-1.92c-3.648-.271-6.467-3.244-6.47-6.824 0-.286.237-.519.53-.519.293 0 .53.233.53.52 0 3.21 2.66 5.811 5.94 5.811 3.28 0 5.94-2.602 5.94-5.812 0-.286.237-.519.53-.519zM12 2a5 5 0 015 5v3.906a5 5 0 11-10 0V7a5 5 0 015-5zm0 .993a4 4 0 00-3.995 3.8l-.005.2v3.92a4 4 0 007.995.2l.005-.2v-3.92a4 4 0 00-4-4z" fill="#FFF" fill-rule="evenodd"/></svg>