<svg width="24" height="24"
    xmlns="http://www.w3.org/2000/svg">
    <g fill="none" fill-rule="evenodd">
        <path d="M17.518 19.18h-1.653a.522.522 0 010-1.044h1.653a4.35 4.35 0 10.13-8.7.513.513 0 01-.504-.47 5.394 5.394 0 00-10.761.47c-.002.265.018.53.06.792a.53.53 0 01-.13.435.6.6 0 01-.408.174 3.654 3.654 0 10-.218 7.299h2.349a.522.522 0 010 1.044H5.687a4.698 4.698 0 01-.348-9.387v-.357a6.438 6.438 0 0112.797-1.009 5.394 5.394 0 01-.618 10.753z" fill="#ffffff"/>
        <path d="M12.855 18.442l2.007-2.017a.576.576 0 10-.814-.814l-2.017 2.055-2.017-2.007a.576.576 0 00-.814.815l2.007 2.017L9.2 20.459a.576.576 0 10.814.814l2.017-2.007 2.017 2.007a.576.576 0 10.814-.814l-2.007-2.017z" fill="#BD2414"/>
    </g>
</svg>
