<svg width="24" height="24"
    xmlns="http://www.w3.org/2000/svg">
    <g fill="none" fill-rule="evenodd">
        <path d="M17.296 18.97h-1.548a.489.489 0 010-.977h1.548a4.075 4.075 0 00.123-8.149.48.48 0 01-.473-.44 5.052 5.052 0 00-10.08.44c-.002.249.018.497.058.742a.497.497 0 01-.123.407.546.546 0 01-.382.163 3.422 3.422 0 10-.204 6.837h2.2a.489.489 0 010 .977h-2.2a4.4 4.4 0 01-.326-8.791v-.335A6.03 6.03 0 0117.875 8.9a5.052 5.052 0 01-.579 10.071z" fill="#ffffff"/>
        <path d="M11.767 20.738a.569.569 0 01-.41-.174l-1.955-1.937a.572.572 0 010-.814.584.584 0 01.82 0l1.545 1.52 4.474-4.426a.584.584 0 01.821 0 .572.572 0 010 .813l-4.885 4.844a.569.569 0 01-.41.174z" fill="#8A9A0E"/>
    </g>
</svg>
