<svg width="42" height="42"
    xmlns="http://www.w3.org/2000/svg">
    <path d="M11.685 12.665a.53.53 0 01.696 0l2.435 2.175a.522.522 0 01-.348.913.54.54 0 01-.348-.13l-1.565-1.401v5.794a.522.522 0 11-1.044 0v-5.794l-1.575 1.4a.524.524 0 01-.696-.782zm-.333-9.645a6.438 6.438 0 016.866 5.417 5.394 5.394 0 01-.618 10.752h-1.653a.522.522 0 110-1.044H17.6a4.35 4.35 0 00.13-8.699.513.513 0 01-.504-.47 5.394 5.394 0 00-10.761.47c-.002.262.018.524.06.783a.53.53 0 01-.539.609 3.655 3.655 0 00-.217 7.307h2.349a.522.522 0 110 1.044H5.769a4.698 4.698 0 01-.348-9.386v-.357a6.438 6.438 0 015.931-6.426z" fill="#ffffff" fill-rule="evenodd"/>
</svg>
